<?xml version="1.0" encoding="UTF-8"?>
<!DOCTYPE svg PUBLIC "-//W3C//DTD SVG 1.1//EN" "http://www.w3.org/Graphics/SVG/1.1/DTD/svg11.dtd">
<svg xmlns="http://www.w3.org/2000/svg" version="1.1" width="340px" height="340px" style="shape-rendering:geometricPrecision; text-rendering:geometricPrecision; image-rendering:optimizeQuality; fill-rule:evenodd; clip-rule:evenodd" xmlns:xlink="http://www.w3.org/1999/xlink">
<g><path style="opacity:0.997" fill="#f2f2f2" d="M 18.5,175.5 C 16.4855,174.076 14.1522,173.41 11.5,173.5C 10.5041,173.586 9.67076,173.252 9,172.5C 8.50137,168.848 8.3347,165.182 8.5,161.5C 12.0781,161.549 15.4115,162.215 18.5,163.5C 23.6549,165.734 28.9883,165.901 34.5,164C 35.056,163.617 35.3893,163.117 35.5,162.5C 40.5781,158.437 42.4114,153.104 41,146.5C 38.6745,149.011 35.8411,150.344 32.5,150.5C 27.4635,150.587 22.4635,150.254 17.5,149.5C 11.7645,147.43 8.09788,143.43 6.5,137.5C 6.59794,135.447 5.93127,133.78 4.5,132.5C 0.50303,117.981 4.1697,105.814 15.5,96C 21.5826,93.5256 27.9159,92.8589 34.5,94C 37.6026,95.4394 40.4359,97.2728 43,99.5C 43.2735,97.6711 44.1068,96.1711 45.5,95C 49.1667,94.3333 52.8333,94.3333 56.5,95C 57,95.5 57.5,96 58,96.5C 58.916,117.533 58.5827,138.533 57,159.5C 51.9258,172.042 42.5925,177.709 29,176.5C 25.3167,176.499 21.8167,176.165 18.5,175.5 Z M 35.5,106.5 C 36.9972,107.306 38.6639,107.972 40.5,108.5C 41.8333,117.833 41.8333,127.167 40.5,136.5C 34.6843,139.433 29.1843,139.1 24,135.5C 23.2432,133.685 22.4098,132.019 21.5,130.5C 20.2754,124.841 20.2754,119.174 21.5,113.5C 22.3771,111.272 23.7104,109.272 25.5,107.5C 28.7861,106.793 32.1194,106.46 35.5,106.5 Z"/></g>
<g><path style="opacity:0.993" fill="#f4f4f4" d="M 114.5,100.5 C 114.427,102.027 115.094,103.027 116.5,103.5C 117.484,119.756 117.818,136.089 117.5,152.5C 112.968,152.818 108.634,152.485 104.5,151.5C 104.762,150.022 104.429,148.689 103.5,147.5C 102.893,147.624 102.56,147.957 102.5,148.5C 91.1056,158.326 80.2723,157.66 70,146.5C 64.9766,132.713 69.4766,123.546 83.5,119C 89.8699,118.294 96.2033,118.461 102.5,119.5C 102.665,116.482 102.498,113.482 102,110.5C 101.093,108.391 99.5934,107.058 97.5,106.5C 95.3587,105.837 93.0254,105.503 90.5,105.5C 86.8589,105.315 83.5256,105.981 80.5,107.5C 77.9455,108.388 75.2788,108.721 72.5,108.5C 72.1774,104.774 72.5108,101.107 73.5,97.5C 74.4168,96.8728 75.4168,96.5394 76.5,96.5C 79.4282,96.4349 82.0948,95.7682 84.5,94.5C 90.987,93.346 97.6536,93.1794 104.5,94C 108.72,94.9346 112.053,97.1013 114.5,100.5 Z M 90.5,128.5 C 94.5341,128.505 98.5341,128.838 102.5,129.5C 104.347,138.153 100.847,142.486 92,142.5C 84.9726,141.813 82.9726,138.146 86,131.5C 87.4087,130.219 88.9087,129.219 90.5,128.5 Z"/></g>
<g><path style="opacity:0.996" fill="#f1f1f1" d="M 198.5,107.5 C 195.201,104.954 191.868,104.954 188.5,107.5C 186.97,108.067 185.47,108.733 184,109.5C 183.667,123.5 183.333,137.5 183,151.5C 177.593,152.473 172.093,152.807 166.5,152.5C 166.667,138.496 166.5,124.496 166,110.5C 165.626,109.584 165.126,108.75 164.5,108C 158.974,106.661 153.474,107.161 148,109.5C 147.5,123.829 147.333,138.163 147.5,152.5C 141.697,153.087 136.197,152.42 131,150.5C 130.333,132.5 130.333,114.5 131,96.5C 131.5,96 132,95.5 132.5,95C 136.5,94.3333 140.5,94.3333 144.5,95C 145.252,95.6708 145.586,96.5041 145.5,97.5C 145.281,98.675 145.614,99.675 146.5,100.5C 147.107,100.376 147.44,100.043 147.5,99.5C 156.854,93.0197 166.854,91.853 177.5,96C 179.049,97.214 180.215,98.714 181,100.5C 189.132,94.1759 198.299,92.0092 208.5,94C 215.026,96.5231 218.526,101.356 219,108.5C 219.667,122.5 219.667,136.5 219,150.5C 216.446,151.771 213.613,152.438 210.5,152.5C 207.833,152.333 205.167,152.167 202.5,152C 201.676,137.908 201.176,123.741 201,109.5C 200.292,108.619 199.458,107.953 198.5,107.5 Z"/></g>
<g><path style="opacity:0.996" fill="#f0f0f0" d="M 270.5,152.5 C 264.19,153.19 257.857,153.524 251.5,153.5C 240.149,152.477 233.149,146.477 230.5,135.5C 229.68,129.203 229.347,122.869 229.5,116.5C 230.828,105.332 236.828,97.8319 247.5,94C 272.951,90.9522 283.618,102.119 279.5,127.5C 267.926,128.454 256.426,128.788 245,128.5C 244.674,135.189 247.841,139.356 254.5,141C 262.251,142.079 269.751,141.245 277,138.5C 277.414,138.957 277.914,139.291 278.5,139.5C 279.833,143.167 279.833,146.833 278.5,150.5C 276.057,152.055 273.39,152.722 270.5,152.5 Z M 253.5,105.5 C 261.883,105.216 265.883,109.216 265.5,117.5C 258.5,117.5 251.5,117.5 244.5,117.5C 244.635,111.189 247.635,107.189 253.5,105.5 Z"/></g>
<g><path style="opacity:0.994" fill="#f2f2f2" d="M 323.5,94.5 C 325.214,95.7384 327.214,96.405 329.5,96.5C 330.117,96.6107 330.617,96.944 331,97.5C 331.667,100.833 331.667,104.167 331,107.5C 330.439,108.022 329.772,108.355 329,108.5C 326.654,108.01 324.487,107.343 322.5,106.5C 318.354,105.353 314.02,105.186 309.5,106C 308.944,106.383 308.611,106.883 308.5,107.5C 308.5,108.167 308.167,108.5 307.5,108.5C 306.861,109.097 306.528,109.93 306.5,111C 306.684,112.376 307.351,113.209 308.5,113.5C 313.535,116.346 318.868,118.513 324.5,120C 334.096,124.593 337.263,132.093 334,142.5C 331.083,149.218 325.916,152.885 318.5,153.5C 312.137,153.593 305.804,153.26 299.5,152.5C 296.772,152.829 294.438,152.163 292.5,150.5C 291.577,146.936 291.244,143.269 291.5,139.5C 291.735,138.903 292.235,138.57 293,138.5C 301.075,141.864 309.242,142.531 317.5,140.5C 320.1,137.959 320.1,135.459 317.5,133C 310.715,130.186 304.048,127.186 297.5,124C 295.235,122.242 293.568,120.075 292.5,117.5C 291.949,114.193 291.616,110.86 291.5,107.5C 295.411,97.0304 303.077,92.3637 314.5,93.5C 317.686,93.502 320.686,93.8353 323.5,94.5 Z"/></g>
<g><path style="opacity:0.337" fill="#757575" d="M 323.5,94.5 C 325.898,94.2594 327.898,94.9261 329.5,96.5C 327.214,96.405 325.214,95.7384 323.5,94.5 Z"/></g>
<g><path style="opacity:0.71" fill="#969696" d="M 84.5,94.5 C 82.0948,95.7682 79.4282,96.4349 76.5,96.5C 78.8383,94.9605 81.5049,94.2938 84.5,94.5 Z"/></g>
<g><path style="opacity:0.227" fill="#4f4f4f" d="M 145.5,97.5 C 146.167,98.1667 146.833,98.8333 147.5,99.5C 147.44,100.043 147.107,100.376 146.5,100.5C 145.614,99.675 145.281,98.675 145.5,97.5 Z"/></g>
<g><path style="opacity:0.322" fill="#787878" d="M 114.5,100.5 C 115.906,100.973 116.573,101.973 116.5,103.5C 115.094,103.027 114.427,102.027 114.5,100.5 Z"/></g>
<g><path style="opacity:0.424" fill="#878787" d="M 35.5,106.5 C 32.1194,106.46 28.7861,106.793 25.5,107.5C 27.1175,106.028 29.1175,105.361 31.5,105.5C 33.0451,105.511 34.3784,105.844 35.5,106.5 Z"/></g>
<g><path style="opacity:0.387" fill="#838383" d="M 97.5,106.5 C 91.8044,106.447 86.1377,106.78 80.5,107.5C 83.5256,105.981 86.8589,105.315 90.5,105.5C 93.0254,105.503 95.3587,105.837 97.5,106.5 Z"/></g>
<g><path style="opacity:0.592" fill="#848484" d="M 198.5,107.5 C 195.247,106.753 191.914,106.753 188.5,107.5C 191.868,104.954 195.201,104.954 198.5,107.5 Z"/></g>
<g><path style="opacity:0.275" fill="#787878" d="M 322.5,106.5 C 317.77,106.283 313.103,106.617 308.5,107.5C 308.611,106.883 308.944,106.383 309.5,106C 314.02,105.186 318.354,105.353 322.5,106.5 Z"/></g>
<g><path style="opacity:0.749" fill="#7f7f7f" d="M 307.5,108.5 C 307.366,110.292 307.699,111.958 308.5,113.5C 307.351,113.209 306.684,112.376 306.5,111C 306.528,109.93 306.861,109.097 307.5,108.5 Z"/></g>
<g><path style="opacity:0.463" fill="#707070" d="M 291.5,107.5 C 291.616,110.86 291.949,114.193 292.5,117.5C 290.469,114.292 290.135,110.959 291.5,107.5 Z"/></g>
<g><path style="opacity:0.655" fill="#a7a7a7" d="M 21.5,113.5 C 20.2754,119.174 20.2754,124.841 21.5,130.5C 20.027,127.983 19.3603,125.15 19.5,122C 19.3603,118.85 20.027,116.017 21.5,113.5 Z"/></g>
<g><path style="opacity:0.639" fill="#b5b5b5" d="M 229.5,116.5 C 229.347,122.869 229.68,129.203 230.5,135.5C 228.961,132.135 228.294,128.469 228.5,124.5C 228.503,121.645 228.836,118.978 229.5,116.5 Z"/></g>
<g><path style="opacity:0.514" fill="#858585" d="M 4.5,132.5 C 5.93127,133.78 6.59794,135.447 6.5,137.5C 5.06873,136.22 4.40206,134.553 4.5,132.5 Z"/></g>
<g><path style="opacity:0.251" fill="#5a5a5a" d="M 291.5,139.5 C 291.244,143.269 291.577,146.936 292.5,150.5C 291.213,149.129 290.547,147.295 290.5,145C 290.506,142.967 290.839,141.134 291.5,139.5 Z"/></g>
<g><path style="opacity:0.384" fill="#7b7b7b" d="M 102.5,148.5 C 102.56,147.957 102.893,147.624 103.5,147.5C 104.429,148.689 104.762,150.022 104.5,151.5C 103.833,150.5 103.167,149.5 102.5,148.5 Z"/></g>
<g><path style="opacity:0.51" fill="#888888" d="M 17.5,149.5 C 22.4635,150.254 27.4635,150.587 32.5,150.5C 30.6965,151.162 28.6965,151.495 26.5,151.5C 23.1864,151.657 20.1864,150.991 17.5,149.5 Z"/></g>
<g><path style="opacity:0.592" fill="#a0a0a0" d="M 270.5,152.5 C 266.946,153.984 263.112,154.651 259,154.5C 256.31,154.497 253.81,154.164 251.5,153.5C 257.857,153.524 264.19,153.19 270.5,152.5 Z"/></g>
<g><path style="opacity:0.639" fill="#a7a7a7" d="M 299.5,152.5 C 305.804,153.26 312.137,153.593 318.5,153.5C 312.12,155.724 305.787,155.391 299.5,152.5 Z"/></g>
<g><path style="opacity:0.639" fill="#a0a0a0" d="M 35.5,162.5 C 35.3893,163.117 35.056,163.617 34.5,164C 28.9883,165.901 23.6549,165.734 18.5,163.5C 21.5514,163.364 24.5514,163.698 27.5,164.5C 30.1849,163.829 32.8516,163.162 35.5,162.5 Z"/></g>
<g><path style="opacity:0.561" fill="#939393" d="M 11.5,173.5 C 14.1522,173.41 16.4855,174.076 18.5,175.5C 15.8478,175.59 13.5145,174.924 11.5,173.5 Z"/></g>
<g><path style="opacity:0.486" fill="#8e8e8e" d="M 279.5,184.5 C 285.653,183.347 291.986,183.18 298.5,184C 301.104,184.39 303.438,185.224 305.5,186.5C 296.935,184.801 288.268,184.135 279.5,184.5 Z"/></g>
<g><path style="opacity:0.995" fill="#efefef" d="M 279.5,184.5 C 288.268,184.135 296.935,184.801 305.5,186.5C 305.833,186.5 306.167,186.5 306.5,186.5C 307.383,191.103 307.717,195.77 307.5,200.5C 305.253,213.33 299.586,224.33 290.5,233.5C 288.929,234.309 287.262,234.643 285.5,234.5C 287.544,228.436 289.544,222.436 291.5,216.5C 293.472,213.916 294.472,210.916 294.5,207.5C 295.821,203.769 295.488,200.269 293.5,197C 285.251,195.594 276.917,195.094 268.5,195.5C 264.833,195.5 261.167,195.5 257.5,195.5C 257.5,194.5 257.5,193.5 257.5,192.5C 264.025,187.699 271.358,185.032 279.5,184.5 Z"/></g>
<g><path style="opacity:0.996" fill="#f4f4f4" d="M 103.5,216.5 C 106.452,218.41 109.786,219.41 113.5,219.5C 117.221,219.911 120.888,220.578 124.5,221.5C 131.565,223.505 138.898,224.505 146.5,224.5C 164.499,225.814 182.499,225.814 200.5,224.5C 205.414,224.638 210.081,223.972 214.5,222.5C 236.81,218.846 258.477,212.513 279.5,203.5C 284.013,203.904 285.513,206.237 284,210.5C 267.153,222.9 248.653,232.067 228.5,238C 221.554,239.822 214.554,241.322 207.5,242.5C 203.183,242.083 199.183,242.75 195.5,244.5C 179.402,245.823 163.402,245.823 147.5,244.5C 143.79,242.864 139.79,242.198 135.5,242.5C 131.803,241.992 128.136,241.326 124.5,240.5C 122.562,238.837 120.228,238.171 117.5,238.5C 86.9704,230.736 59.9704,216.403 36.5,195.5C 34.9137,193.827 34.2471,191.827 34.5,189.5C 36.5273,189.338 38.5273,189.505 40.5,190C 60.0651,202.244 81.0651,211.077 103.5,216.5 Z"/></g>
<g><path style="opacity:0.486" fill="#858585" d="M 306.5,186.5 C 307.117,186.611 307.617,186.944 308,187.5C 308.814,192.02 308.647,196.354 307.5,200.5C 307.717,195.77 307.383,191.103 306.5,186.5 Z"/></g>
<g><path style="opacity:0.655" fill="#818181" d="M 257.5,192.5 C 257.5,193.5 257.5,194.5 257.5,195.5C 261.167,195.5 264.833,195.5 268.5,195.5C 264.702,196.483 260.702,196.817 256.5,196.5C 256.232,194.901 256.566,193.568 257.5,192.5 Z"/></g>
<g><path style="opacity:0.78" fill="#a3a3a3" d="M 294.5,207.5 C 294.472,210.916 293.472,213.916 291.5,216.5C 291.928,213.215 292.928,210.215 294.5,207.5 Z"/></g>
<g><path style="opacity:0.514" fill="#848484" d="M 103.5,216.5 C 107.116,216.899 110.45,217.899 113.5,219.5C 109.786,219.41 106.452,218.41 103.5,216.5 Z"/></g>
<g><path style="opacity:0.639" fill="#8d8d8d" d="M 124.5,221.5 C 132.052,221.874 139.385,222.874 146.5,224.5C 138.898,224.505 131.565,223.505 124.5,221.5 Z"/></g>
<g><path style="opacity:0.616" fill="#9e9e9e" d="M 214.5,222.5 C 210.081,223.972 205.414,224.638 200.5,224.5C 204.943,223.199 209.609,222.532 214.5,222.5 Z"/></g>
<g><path style="opacity:0.82" fill="#999999" d="M 117.5,238.5 C 120.228,238.171 122.562,238.837 124.5,240.5C 121.933,240.279 119.599,239.612 117.5,238.5 Z"/></g>
<g><path style="opacity:1" fill="#999999" d="M 135.5,242.5 C 139.79,242.198 143.79,242.864 147.5,244.5C 143.267,244.461 139.267,243.795 135.5,242.5 Z"/></g>
<g><path style="opacity:0.561" fill="#888888" d="M 207.5,242.5 C 203.705,243.617 199.705,244.283 195.5,244.5C 199.183,242.75 203.183,242.083 207.5,242.5 Z"/></g>
</svg>
