<?xml version="1.0" encoding="UTF-8"?>
<!DOCTYPE svg PUBLIC "-//W3C//DTD SVG 1.1//EN" "http://www.w3.org/Graphics/SVG/1.1/DTD/svg11.dtd">
<svg xmlns="http://www.w3.org/2000/svg" version="1.1" width="526px" height="524px" style="shape-rendering:geometricPrecision; text-rendering:geometricPrecision; image-rendering:optimizeQuality; fill-rule:evenodd; clip-rule:evenodd" xmlns:xlink="http://www.w3.org/1999/xlink">
<g><path style="opacity:0.953" fill="#fefffe" d="M 525.5,239.5 C 525.5,254.5 525.5,269.5 525.5,284.5C 515.713,368.693 476.047,434.526 406.5,482C 381.96,497.55 355.627,508.883 327.5,516C 313.457,519.061 299.457,521.561 285.5,523.5C 270.5,523.5 255.5,523.5 240.5,523.5C 163.642,514.83 101.142,480.497 53,420.5C -3.16032,340.693 -14.4937,254.693 19,162.5C 33.4357,130.747 52.6024,102.247 76.5,77C 144.732,12.4265 225.399,-11.2402 318.5,6C 369.076,17.4458 412.743,41.1125 449.5,77C 485.269,113.2 508.769,156.366 520,206.5C 522.073,217.606 523.906,228.606 525.5,239.5 Z M 246.5,35.5 C 327.905,32.6304 394.071,62.6304 445,125.5C 495.918,198.577 503.918,276.243 469,358.5C 429.399,435.045 366.566,478.211 280.5,488C 198.626,491.633 132.126,461.8 81,398.5C 30.0822,325.423 22.0822,247.757 57,165.5C 96.8549,88.5214 160.022,45.1881 246.5,35.5 Z"/></g>
<g><path style="opacity:0.932" fill="#fefffe" d="M 172.5,173.5 C 215.838,173.167 259.172,173.5 302.5,174.5C 295.951,185.344 288.951,195.844 281.5,206C 238.501,206.5 195.501,206.667 152.5,206.5C 158.384,195.073 165.051,184.073 172.5,173.5 Z"/></g>
<g><path style="opacity:0.535" fill="#fefffe" d="M 347.5,173.5 C 352.833,173.5 358.167,173.5 363.5,173.5C 364.42,181.271 365.753,181.271 367.5,173.5C 369.167,173.5 370.833,173.5 372.5,173.5C 372.5,177.833 372.5,182.167 372.5,186.5C 371.167,186.5 369.833,186.5 368.5,186.5C 368.167,181.167 367.833,181.167 367.5,186.5C 366.167,186.5 364.833,186.5 363.5,186.5C 363.167,182.5 362.833,182.5 362.5,186.5C 361.167,186.5 359.833,186.5 358.5,186.5C 358.5,183.167 358.5,179.833 358.5,176.5C 357.167,176.5 355.833,176.5 354.5,176.5C 354.5,179.833 354.5,183.167 354.5,186.5C 353.167,186.5 351.833,186.5 350.5,186.5C 350.216,183.223 350.549,180.057 351.5,177C 350.207,176.51 348.873,176.343 347.5,176.5C 347.5,175.5 347.5,174.5 347.5,173.5 Z"/></g>
<g><path style="opacity:0.948" fill="#fefffe" d="M 349.5,266.5 C 343.34,256.185 336.673,246.185 329.5,236.5C 309.528,268.288 289.195,299.788 268.5,331C 212.834,331.5 157.168,331.667 101.5,331.5C 113.811,310.331 126.811,289.497 140.5,269C 131.149,268.832 121.816,268.332 112.5,267.5C 118.794,257.077 125.46,246.91 132.5,237C 173.208,236.828 213.875,236.328 254.5,235.5C 254.833,236 255.167,236.5 255.5,237C 248.651,247.207 241.985,257.54 235.5,268C 217.491,268.167 199.491,268.667 181.5,269.5C 175.698,279.133 169.698,288.633 163.5,298C 192.165,298.5 220.831,298.667 249.5,298.5C 249.351,297.448 249.517,296.448 250,295.5C 269.846,265.138 289.179,234.471 308,203.5C 314.852,193.898 321.519,184.232 328,174.5C 337.12,186.289 345.453,198.623 353,211.5C 378.915,249.661 404.581,287.994 430,326.5C 431.009,328.025 431.509,329.692 431.5,331.5C 418.496,331.667 405.496,331.5 392.5,331C 385.71,321.253 379.043,311.42 372.5,301.5C 352.167,300.833 331.833,300.167 311.5,299.5C 318.034,289.647 324.368,279.147 330.5,268C 336.715,266.584 343.048,266.084 349.5,266.5 Z"/></g>
</svg>
