<?xml version="1.0" encoding="UTF-8"?>
<!DOCTYPE svg PUBLIC "-//W3C//DTD SVG 1.1//EN" "http://www.w3.org/Graphics/SVG/1.1/DTD/svg11.dtd">
<svg xmlns="http://www.w3.org/2000/svg" version="1.1" width="652px" height="652px" style="shape-rendering:geometricPrecision; text-rendering:geometricPrecision; image-rendering:optimizeQuality; fill-rule:evenodd; clip-rule:evenodd" xmlns:xlink="http://www.w3.org/1999/xlink">
<g><path style="opacity:1" fill="#fefefe" d="M 532.5,633.5 C 497.852,607.191 463.185,580.858 428.5,554.5C 381.917,582.041 335.417,609.707 289,637.5C 310.279,590.709 331.779,543.876 353.5,497C 328.546,469.71 303.212,442.71 277.5,416C 277.833,415.667 278.167,415.333 278.5,415C 275.117,406.186 273.784,397.019 274.5,387.5C 275.548,365.501 276.548,343.501 277.5,321.5C 277.943,307.868 274.777,295.202 268,283.5C 259.032,272.766 247.532,266.932 233.5,266C 206.928,265.172 180.428,265.339 154,266.5C 143.639,314.472 133.472,362.472 123.5,410.5C 88.0208,410.993 52.6874,410.493 17.5,409C 45.7877,277.231 73.9544,145.397 102,13.5C 173.763,12.3354 245.596,12.1687 317.5,13C 339.965,13.493 361.632,17.8263 382.5,26C 409.188,39.717 424.688,61.5504 429,91.5C 432.788,117.754 430.455,143.421 422,168.5C 409.925,195.963 389.425,213.797 360.5,222C 353.196,223.794 345.862,225.461 338.5,227C 361.978,235.057 375.145,251.557 378,276.5C 378.989,285.135 379.489,293.802 379.5,302.5C 378.311,329.16 377.811,355.827 378,382.5C 379.264,394.398 382.764,405.565 388.5,416C 392.871,416.828 397.205,416.661 401.5,415.5C 427.333,371.833 453.167,328.167 479,284.5C 486.911,328.3 494.078,372.3 500.5,416.5C 544.838,416.167 589.172,416.5 633.5,417.5C 593.639,445.861 553.639,474.028 513.5,502C 520.435,545.711 526.768,589.544 532.5,633.5 Z M 191.5,95.5 C 222.502,95.3334 253.502,95.5 284.5,96C 316.704,99.1863 330.537,116.686 326,148.5C 322.517,166.323 312.351,178.489 295.5,185C 285.478,188.575 275.144,190.575 264.5,191C 233.833,191.667 203.167,191.667 172.5,191C 172.167,190.667 171.833,190.333 171.5,190C 178.738,158.646 185.404,127.146 191.5,95.5 Z M 467.5,342.5 C 469.06,344.156 470.06,346.156 470.5,348.5C 470.646,352.519 470.979,356.519 471.5,360.5C 473.416,371.276 475.416,381.943 477.5,392.5C 477.646,396.519 477.979,400.519 478.5,404.5C 479.065,406.952 479.732,409.285 480.5,411.5C 480.646,415.519 480.979,419.519 481.5,423.5C 482.065,425.952 482.732,428.285 483.5,430.5C 483.5,432.5 483.5,434.5 483.5,436.5C 512.671,436.169 541.671,436.502 570.5,437.5C 545.322,455.17 519.989,472.67 494.5,490C 492.845,491.444 492.178,493.278 492.5,495.5C 495.418,513.941 498.418,532.275 501.5,550.5C 501.438,555.076 502.105,559.409 503.5,563.5C 503.532,568.391 504.199,573.057 505.5,577.5C 505.46,580.881 505.793,584.214 506.5,587.5C 481.494,567.999 456.328,548.666 431,529.5C 430.005,530.066 429.172,530.733 428.5,531.5C 427.833,531.833 427.167,532.167 426.5,532.5C 395.945,550.362 365.445,568.362 335,586.5C 335.491,583.819 336.324,581.153 337.5,578.5C 338.338,578.158 338.672,577.492 338.5,576.5C 341.07,571.689 343.403,566.689 345.5,561.5C 346.338,561.158 346.672,560.492 346.5,559.5C 348.736,555.355 350.736,551.022 352.5,546.5C 353.674,545.486 354.34,544.153 354.5,542.5C 356.736,538.355 358.736,534.022 360.5,529.5C 361.338,529.158 361.672,528.492 361.5,527.5C 364.07,522.689 366.403,517.689 368.5,512.5C 369.338,512.158 369.672,511.492 369.5,510.5C 371.736,506.355 373.736,502.022 375.5,497.5C 376.338,497.158 376.672,496.492 376.5,495.5C 377.338,495.158 377.672,494.492 377.5,493.5C 378.573,492.749 378.74,491.749 378,490.5C 360.296,472.298 342.796,453.964 325.5,435.5C 354.671,435.831 383.671,435.498 412.5,434.5C 414.446,433.965 415.446,432.632 415.5,430.5C 418.623,427.024 420.957,423.024 422.5,418.5C 424.25,417.341 425.25,415.674 425.5,413.5C 428.623,410.024 430.957,406.024 432.5,401.5C 435.623,398.024 437.957,394.024 439.5,389.5C 441.25,388.341 442.25,386.674 442.5,384.5C 445.623,381.024 447.957,377.024 449.5,372.5C 451.25,371.341 452.25,369.674 452.5,367.5C 455.623,364.024 457.957,360.024 459.5,355.5C 462.623,352.024 464.957,348.024 466.5,343.5C 467.167,343.5 467.5,343.167 467.5,342.5 Z"/></g>
<g><path style="opacity:0.882" fill="#ccc5b8" d="M 467.5,342.5 C 467.5,343.167 467.167,343.5 466.5,343.5C 466.5,342.5 466.5,341.5 466.5,340.5C 469.925,340.367 470.258,341.033 467.5,342.5 Z"/></g>
<g><path style="opacity:0.863" fill="#dbd2c1" d="M 466.5,343.5 C 464.957,348.024 462.623,352.024 459.5,355.5C 460.686,351.637 462.353,347.971 464.5,344.5C 464.957,343.702 465.624,343.369 466.5,343.5 Z"/></g>
<g><path style="opacity:0.978" fill="#d7d8d8" d="M 470.5,348.5 C 472.162,352.446 472.496,356.446 471.5,360.5C 470.979,356.519 470.646,352.519 470.5,348.5 Z"/></g>
<g><path style="opacity:0.973" fill="#ded6c5" d="M 459.5,355.5 C 457.957,360.024 455.623,364.024 452.5,367.5C 452.586,365.323 453.253,363.323 454.5,361.5C 455.824,359.058 457.491,357.058 459.5,355.5 Z"/></g>
<g><path style="opacity:0.953" fill="#d9d1c1" d="M 452.5,367.5 C 452.25,369.674 451.25,371.341 449.5,372.5C 449.259,369.966 450.259,368.3 452.5,367.5 Z"/></g>
<g><path style="opacity:0.02" fill="#dfd6c2" d="M 449.5,372.5 C 447.957,377.024 445.623,381.024 442.5,384.5C 443.686,380.637 445.353,376.971 447.5,373.5C 447.957,372.702 448.624,372.369 449.5,372.5 Z"/></g>
<g><path style="opacity:0.957" fill="#d9d1c1" d="M 442.5,384.5 C 442.25,386.674 441.25,388.341 439.5,389.5C 439.259,386.966 440.259,385.3 442.5,384.5 Z"/></g>
<g><path style="opacity:0.98" fill="#d7d8d8" d="M 477.5,392.5 C 479.162,396.446 479.496,400.446 478.5,404.5C 477.979,400.519 477.646,396.519 477.5,392.5 Z"/></g>
<g><path style="opacity:0.863" fill="#dbd2c1" d="M 439.5,389.5 C 437.957,394.024 435.623,398.024 432.5,401.5C 433.686,397.637 435.353,393.971 437.5,390.5C 437.957,389.702 438.624,389.369 439.5,389.5 Z"/></g>
<g><path style="opacity:0.973" fill="#ded5c4" d="M 432.5,401.5 C 430.957,406.024 428.623,410.024 425.5,413.5C 425.586,411.323 426.253,409.323 427.5,407.5C 428.824,405.058 430.491,403.058 432.5,401.5 Z"/></g>
<g><path style="opacity:0.953" fill="#d9d1c1" d="M 425.5,413.5 C 425.25,415.674 424.25,417.341 422.5,418.5C 422.259,415.966 423.259,414.3 425.5,413.5 Z"/></g>
<g><path style="opacity:0.978" fill="#d7d8d8" d="M 480.5,411.5 C 482.162,415.446 482.496,419.446 481.5,423.5C 480.979,419.519 480.646,415.519 480.5,411.5 Z"/></g>
<g><path style="opacity:0.969" fill="#dbd3c2" d="M 422.5,418.5 C 420.957,423.024 418.623,427.024 415.5,430.5C 416.686,426.637 418.353,422.971 420.5,419.5C 420.957,418.702 421.624,418.369 422.5,418.5 Z"/></g>
<g><path style="opacity:0.957" fill="#d8d1c2" d="M 415.5,430.5 C 415.446,432.632 414.446,433.965 412.5,434.5C 412.554,432.368 413.554,431.035 415.5,430.5 Z"/></g>
<g><path style="opacity:0.882" fill="#cbcccb" d="M 483.5,430.5 C 484.451,431.919 484.784,433.585 484.5,435.5C 513.833,435.5 543.167,435.5 572.5,435.5C 572.715,437.179 572.048,438.179 570.5,438.5C 570.5,438.167 570.5,437.833 570.5,437.5C 541.671,436.502 512.671,436.169 483.5,436.5C 483.5,434.5 483.5,432.5 483.5,430.5 Z"/></g>
<g><path style="opacity:1" fill="#d4d4d4" d="M 412.5,434.5 C 383.671,435.498 354.671,435.831 325.5,435.5C 324.761,435.369 324.094,435.536 323.5,436C 342.093,454.755 360.093,473.921 377.5,493.5C 377.672,494.492 377.338,495.158 376.5,495.5C 376.649,494.448 376.483,493.448 376,492.5C 358.333,474.167 340.667,455.833 323,437.5C 322.517,436.552 322.351,435.552 322.5,434.5C 352.5,434.5 382.5,434.5 412.5,434.5 Z"/></g>
<g><path style="opacity:0.125" fill="#fdeac3" d="M 325.5,435.5 C 342.796,453.964 360.296,472.298 378,490.5C 378.74,491.749 378.573,492.749 377.5,493.5C 360.093,473.921 342.093,454.755 323.5,436C 324.094,435.536 324.761,435.369 325.5,435.5 Z"/></g>
<g><path style="opacity:0.945" fill="#d8d1c4" d="M 570.5,437.5 C 570.5,437.833 570.5,438.167 570.5,438.5C 545.624,456.859 520.29,474.693 494.5,492C 493.915,493.302 493.249,494.469 492.5,495.5C 492.178,493.278 492.845,491.444 494.5,490C 519.989,472.67 545.322,455.17 570.5,437.5 Z"/></g>
<g><path style="opacity:1" fill="#ded7c8" d="M 375.5,497.5 C 373.736,502.022 371.736,506.355 369.5,510.5C 369.665,505.178 371.665,500.845 375.5,497.5 Z"/></g>
<g><path style="opacity:1" fill="#ded6c7" d="M 368.5,512.5 C 366.403,517.689 364.07,522.689 361.5,527.5C 361.999,521.508 364.332,516.508 368.5,512.5 Z"/></g>
<g><path style="opacity:1" fill="#ddd6c8" d="M 360.5,529.5 C 358.736,534.022 356.736,538.355 354.5,542.5C 354.665,537.178 356.665,532.845 360.5,529.5 Z"/></g>
<g><path style="opacity:1" fill="#ded7c8" d="M 352.5,546.5 C 350.736,551.022 348.736,555.355 346.5,559.5C 346.665,554.178 348.665,549.845 352.5,546.5 Z"/></g>
<g><path style="opacity:0.978" fill="#d8d9d9" d="M 501.5,550.5 C 502.895,554.591 503.562,558.924 503.5,563.5C 502.105,559.409 501.438,555.076 501.5,550.5 Z"/></g>
<g><path style="opacity:0.906" fill="#d7d0c3" d="M 426.5,532.5 C 426.5,533.167 426.5,533.833 426.5,534.5C 396.741,551.741 367.074,569.241 337.5,587C 335.975,588.009 334.308,588.509 332.5,588.5C 332.624,584.252 334.29,580.918 337.5,578.5C 336.324,581.153 335.491,583.819 335,586.5C 365.445,568.362 395.945,550.362 426.5,532.5 Z"/></g>
<g><path style="opacity:0.125" fill="#fdeac3" d="M 506.5,587.5 C 506.103,588.525 505.437,588.692 504.5,588C 480.833,569.667 457.167,551.333 433.5,533C 431.975,531.991 430.308,531.491 428.5,531.5C 429.172,530.733 430.005,530.066 431,529.5C 456.328,548.666 481.494,567.999 506.5,587.5 Z"/></g>
<g><path style="opacity:1" fill="#d0d0cf" d="M 428.5,531.5 C 430.308,531.491 431.975,531.991 433.5,533C 457.167,551.333 480.833,569.667 504.5,588C 505.437,588.692 506.103,588.525 506.5,587.5C 505.793,584.214 505.46,580.881 505.5,577.5C 506.795,581.267 507.461,585.267 507.5,589.5C 506.127,589.657 504.793,589.49 503.5,589C 479.26,569.592 454.593,550.758 429.5,532.5C 428.482,533.193 427.482,533.859 426.5,534.5C 426.5,533.833 426.5,533.167 426.5,532.5C 427.167,532.167 427.833,531.833 428.5,531.5 Z"/></g>
<g><path style="opacity:1" fill="#ded6c7" d="M 345.5,561.5 C 343.403,566.689 341.07,571.689 338.5,576.5C 338.999,570.508 341.332,565.508 345.5,561.5 Z"/></g>
<g><path style="opacity:1" fill="#fefffe" d="M 532.5,633.5 C 533.833,634.167 533.833,634.167 532.5,633.5 Z"/></g>
</svg>
