<svg id="svg" version="1.1" xmlns="http://www.w3.org/2000/svg" xmlns:xlink="http://www.w3.org/1999/xlink" width="400" height="399.6666666666667" viewBox="0, 0, 400,399.6666666666667"><g id="svgg"><path id="path0" d="M195.667 16.602 C 103.572 19.121,27.974 88.409,17.844 179.583 C 17.430 183.313,17.083 187.639,17.190 187.746 C 17.273 187.828,21.785 189.689,81.192 214.141 L 115.633 228.317 117.442 227.225 C 125.100 222.602,134.287 220.020,143.167 219.997 L 145.750 219.990 168.167 187.401 C 180.496 169.476,190.568 154.685,190.550 154.531 C 190.331 152.668,191.162 144.025,191.915 140.333 C 201.873 91.563,257.506 68.439,298.750 95.927 C 334.937 120.045,340.411 171.199,310.144 202.411 C 297.234 215.724,280.617 223.027,261.833 223.644 L 258.417 223.756 226.442 246.626 L 194.467 269.495 194.396 271.956 C 193.401 306.772,159.268 330.340,126.538 318.809 C 111.013 313.339,98.795 300.084,94.592 284.151 C 94.273 282.945,93.991 281.940,93.965 281.918 C 93.938 281.896,91.142 280.735,87.750 279.338 C 76.574 274.733,62.852 269.074,56.417 266.416 C 32.758 256.644,24.752 253.359,24.707 253.404 C 24.629 253.482,27.102 260.846,28.127 263.583 C 57.703 342.601,136.682 391.276,220.250 381.989 C 325.558 370.286,399.020 271.861,380.402 167.417 C 364.600 78.765,285.448 14.147,195.667 16.602 M254.833 107.740 C 218.576 112.352,201.419 153.991,223.894 182.822 C 238.565 201.641,266.139 205.953,286.000 192.533 C 312.948 174.325,313.503 135.136,287.083 116.046 C 278.140 109.584,265.641 106.365,254.833 107.740 M266.333 119.470 C 294.007 124.435,304.731 158.633,284.849 178.515 C 265.865 197.499,233.218 188.577,226.585 162.593 C 220.320 138.051,241.546 115.023,266.333 119.470 M138.545 231.933 C 135.739 232.314,130.000 233.811,130.000 234.162 C 130.000 234.230,135.044 236.367,141.208 238.912 C 157.778 245.753,159.600 246.763,163.621 251.333 C 180.722 270.769,165.466 301.603,139.859 299.360 C 134.856 298.922,135.463 299.135,115.083 290.657 C 111.417 289.132,108.390 287.906,108.356 287.933 C 108.066 288.169,111.765 293.947,113.629 296.167 C 134.067 320.508,173.679 311.435,181.582 280.601 C 188.444 253.827,165.807 228.227,138.545 231.933 " stroke="none" fill="#fbfbfb" fill-rule="evenodd"></path><path id="path1" d="M198.625 16.457 C 199.381 16.488,200.619 16.488,201.375 16.457 C 202.131 16.426,201.512 16.401,200.000 16.401 C 198.487 16.401,197.869 16.426,198.625 16.457 M192.381 16.623 C 192.912 16.657,193.737 16.656,194.214 16.623 C 194.692 16.589,194.258 16.562,193.250 16.562 C 192.242 16.563,191.851 16.590,192.381 16.623 M205.881 16.623 C 206.412 16.657,207.237 16.656,207.714 16.623 C 208.192 16.589,207.758 16.562,206.750 16.562 C 205.742 16.563,205.351 16.590,205.881 16.623 M188.875 16.788 C 189.219 16.824,189.781 16.824,190.125 16.788 C 190.469 16.752,190.188 16.723,189.500 16.723 C 188.813 16.723,188.531 16.752,188.875 16.788 M209.875 16.788 C 210.219 16.824,210.781 16.824,211.125 16.788 C 211.469 16.752,211.188 16.723,210.500 16.723 C 209.813 16.723,209.531 16.752,209.875 16.788 M186.292 16.954 C 186.590 16.991,187.077 16.991,187.375 16.954 C 187.673 16.917,187.429 16.887,186.833 16.887 C 186.237 16.887,185.994 16.917,186.292 16.954 M212.625 16.954 C 212.923 16.991,213.410 16.991,213.708 16.954 C 214.006 16.917,213.762 16.887,213.167 16.887 C 212.571 16.887,212.327 16.917,212.625 16.954 M184.208 17.119 C 184.460 17.158,184.873 17.158,185.125 17.119 C 185.377 17.081,185.171 17.050,184.667 17.050 C 184.162 17.050,183.956 17.081,184.208 17.119 M214.875 17.119 C 215.127 17.158,215.540 17.158,215.792 17.119 C 216.044 17.081,215.838 17.050,215.333 17.050 C 214.829 17.050,214.623 17.081,214.875 17.119 M182.377 17.286 C 182.631 17.325,183.006 17.324,183.211 17.284 C 183.416 17.244,183.208 17.213,182.750 17.214 C 182.292 17.216,182.124 17.248,182.377 17.286 M216.877 17.286 C 217.131 17.325,217.506 17.324,217.711 17.284 C 217.916 17.244,217.708 17.213,217.250 17.214 C 216.792 17.216,216.624 17.248,216.877 17.286 M180.625 17.451 C 180.831 17.491,181.169 17.491,181.375 17.451 C 181.581 17.411,181.412 17.379,181.000 17.379 C 180.588 17.379,180.419 17.411,180.625 17.451 M218.625 17.451 C 218.831 17.491,219.169 17.491,219.375 17.451 C 219.581 17.411,219.412 17.379,219.000 17.379 C 218.588 17.379,218.419 17.411,218.625 17.451 M179.125 17.618 C 179.331 17.657,179.669 17.657,179.875 17.618 C 180.081 17.578,179.912 17.545,179.500 17.545 C 179.088 17.545,178.919 17.578,179.125 17.618 M220.125 17.618 C 220.331 17.657,220.669 17.657,220.875 17.618 C 221.081 17.578,220.912 17.545,220.500 17.545 C 220.088 17.545,219.919 17.578,220.125 17.618 M177.794 17.785 C 178.001 17.824,178.301 17.823,178.460 17.781 C 178.620 17.739,178.450 17.707,178.083 17.709 C 177.717 17.711,177.586 17.745,177.794 17.785 M221.627 17.785 C 221.834 17.824,222.134 17.823,222.294 17.781 C 222.453 17.739,222.283 17.707,221.917 17.709 C 221.550 17.711,221.420 17.745,221.627 17.785 M176.375 17.948 C 176.535 17.990,176.798 17.990,176.958 17.948 C 177.119 17.906,176.987 17.872,176.667 17.872 C 176.346 17.872,176.215 17.906,176.375 17.948 M223.042 17.948 C 223.202 17.990,223.465 17.990,223.625 17.948 C 223.785 17.906,223.654 17.872,223.333 17.872 C 223.012 17.872,222.881 17.906,223.042 17.948 M175.127 18.118 C 175.334 18.158,175.634 18.156,175.794 18.115 C 175.953 18.073,175.783 18.040,175.417 18.042 C 175.050 18.044,174.920 18.078,175.127 18.118 M224.294 18.118 C 224.501 18.158,224.801 18.156,224.960 18.115 C 225.120 18.073,224.950 18.040,224.583 18.042 C 224.217 18.044,224.086 18.078,224.294 18.118 M173.875 18.282 C 174.035 18.323,174.298 18.323,174.458 18.282 C 174.619 18.240,174.487 18.205,174.167 18.205 C 173.846 18.205,173.715 18.240,173.875 18.282 M225.542 18.282 C 225.702 18.323,225.965 18.323,226.125 18.282 C 226.285 18.240,226.154 18.205,225.833 18.205 C 225.512 18.205,225.381 18.240,225.542 18.282 M172.708 18.448 C 172.869 18.490,173.131 18.490,173.292 18.448 C 173.452 18.406,173.321 18.372,173.000 18.372 C 172.679 18.372,172.548 18.406,172.708 18.448 M226.708 18.448 C 226.869 18.490,227.131 18.490,227.292 18.448 C 227.452 18.406,227.321 18.372,227.000 18.372 C 226.679 18.372,226.548 18.406,226.708 18.448 M168.917 18.971 C 168.092 19.116,167.529 19.256,167.667 19.283 C 167.804 19.310,168.704 19.191,169.667 19.017 C 170.629 18.844,171.192 18.703,170.917 18.705 C 170.642 18.706,169.742 18.825,168.917 18.971 M229.750 18.925 C 230.392 19.047,231.104 19.142,231.333 19.138 C 231.563 19.133,231.225 19.030,230.583 18.908 C 229.942 18.787,229.229 18.691,229.000 18.696 C 228.771 18.700,229.108 18.804,229.750 18.925 M166.083 19.500 C 165.637 19.613,165.628 19.627,166.000 19.627 C 166.229 19.627,166.642 19.570,166.917 19.500 C 167.363 19.387,167.372 19.373,167.000 19.373 C 166.771 19.373,166.358 19.430,166.083 19.500 M233.083 19.500 C 233.358 19.570,233.771 19.627,234.000 19.627 C 234.372 19.627,234.363 19.613,233.917 19.500 C 233.642 19.430,233.229 19.373,233.000 19.373 C 232.628 19.373,232.637 19.387,233.083 19.500 M236.250 20.093 C 236.800 20.217,237.362 20.313,237.500 20.306 C 237.891 20.287,236.134 19.865,235.667 19.866 C 235.438 19.867,235.700 19.969,236.250 20.093 M162.667 20.167 C 162.106 20.346,162.712 20.346,163.417 20.167 C 163.866 20.052,163.874 20.039,163.500 20.036 C 163.271 20.035,162.896 20.093,162.667 20.167 M160.750 20.580 C 160.292 20.697,160.067 20.795,160.250 20.798 C 160.433 20.800,160.958 20.705,161.417 20.587 C 161.875 20.469,162.100 20.371,161.917 20.369 C 161.733 20.367,161.208 20.462,160.750 20.580 M239.000 20.667 C 239.229 20.740,239.567 20.800,239.750 20.800 C 240.014 20.800,239.997 20.772,239.667 20.667 C 239.438 20.593,239.100 20.533,238.917 20.533 C 238.653 20.533,238.670 20.561,239.000 20.667 M158.500 21.083 C 158.087 21.203,157.862 21.307,158.000 21.314 C 158.137 21.321,158.625 21.223,159.083 21.095 C 159.542 20.967,159.767 20.864,159.583 20.865 C 159.400 20.865,158.912 20.964,158.500 21.083 M243.735 21.764 C 245.744 22.262,247.417 22.638,247.454 22.602 C 247.535 22.520,240.655 20.828,240.320 20.847 C 240.190 20.854,241.727 21.267,243.735 21.764 M156.500 21.522 C 156.179 21.609,154.492 22.057,152.750 22.516 C 90.514 38.937,41.017 87.671,23.429 149.844 C 22.430 153.377,20.998 159.096,21.012 159.500 C 21.016 159.637,21.493 157.875,22.071 155.583 C 38.665 89.805,88.787 39.350,154.592 22.182 C 156.329 21.729,157.600 21.359,157.417 21.361 C 157.233 21.362,156.821 21.435,156.500 21.522 M247.917 22.811 C 248.100 22.891,248.512 23.004,248.833 23.063 C 249.234 23.135,249.312 23.123,249.083 23.022 C 248.900 22.942,248.487 22.829,248.167 22.771 C 247.766 22.698,247.688 22.711,247.917 22.811 M250.417 23.502 C 250.967 23.682,251.492 23.825,251.583 23.819 C 251.851 23.804,250.626 23.385,249.994 23.275 C 249.676 23.220,249.867 23.322,250.417 23.502 M252.333 24.083 C 252.654 24.207,253.029 24.308,253.167 24.308 C 253.304 24.308,253.154 24.207,252.833 24.083 C 252.512 23.960,252.137 23.859,252.000 23.859 C 251.862 23.859,252.012 23.960,252.333 24.083 M256.333 25.320 C 316.851 45.182,363.293 94.922,377.932 155.554 C 378.194 156.638,378.432 157.453,378.461 157.366 C 378.491 157.278,378.281 156.278,377.995 155.145 C 363.678 98.346,323.355 51.939,269.083 29.802 C 264.283 27.844,254.174 24.290,253.569 24.348 C 253.485 24.356,254.729 24.793,256.333 25.320 M259.042 84.290 C 259.660 84.322,260.673 84.322,261.292 84.290 C 261.910 84.258,261.404 84.232,260.167 84.232 C 258.929 84.232,258.423 84.258,259.042 84.290 M255.463 84.456 C 255.855 84.491,256.455 84.490,256.796 84.454 C 257.137 84.419,256.817 84.390,256.083 84.390 C 255.350 84.391,255.071 84.420,255.463 84.456 M263.629 84.456 C 264.021 84.491,264.621 84.490,264.963 84.454 C 265.304 84.419,264.983 84.390,264.250 84.390 C 263.517 84.391,263.237 84.420,263.629 84.456 M253.375 84.619 C 253.627 84.658,254.040 84.658,254.292 84.619 C 254.544 84.581,254.338 84.550,253.833 84.550 C 253.329 84.550,253.123 84.581,253.375 84.619 M266.042 84.619 C 266.294 84.658,266.706 84.658,266.958 84.619 C 267.210 84.581,267.004 84.550,266.500 84.550 C 265.996 84.550,265.790 84.581,266.042 84.619 M250.583 84.857 C 228.815 88.131,210.530 100.597,199.658 119.574 C 195.198 127.359,191.606 138.411,191.096 145.917 C 191.029 146.899,191.087 146.657,191.317 145.000 C 195.636 113.844,219.359 89.759,250.333 85.085 C 251.754 84.870,252.617 84.698,252.250 84.701 C 251.883 84.704,251.133 84.775,250.583 84.857 M267.792 84.784 C 267.998 84.824,268.335 84.824,268.542 84.784 C 268.748 84.745,268.579 84.712,268.167 84.712 C 267.754 84.712,267.585 84.745,267.792 84.784 M269.208 84.948 C 269.369 84.990,269.631 84.990,269.792 84.948 C 269.952 84.906,269.821 84.872,269.500 84.872 C 269.179 84.872,269.048 84.906,269.208 84.948 M272.327 85.436 C 301.128 90.628,323.668 113.436,328.658 142.435 C 328.924 143.983,329.148 145.061,329.154 144.829 C 329.173 144.179,328.382 139.812,327.841 137.583 C 321.771 112.556,302.394 92.848,277.523 86.405 C 275.173 85.796,271.062 84.989,270.447 85.016 C 270.247 85.024,271.093 85.214,272.327 85.436 M256.958 107.455 C 257.348 107.490,257.985 107.490,258.375 107.455 C 258.765 107.420,258.446 107.392,257.667 107.392 C 256.887 107.392,256.569 107.420,256.958 107.455 M262.047 107.456 C 262.485 107.490,263.160 107.490,263.547 107.455 C 263.934 107.420,263.575 107.392,262.750 107.392 C 261.925 107.393,261.609 107.422,262.047 107.456 M255.044 107.620 C 255.297 107.658,255.672 107.657,255.877 107.617 C 256.082 107.578,255.875 107.546,255.417 107.548 C 254.958 107.549,254.791 107.581,255.044 107.620 M264.347 107.563 C 264.385 107.598,265.017 107.667,265.750 107.718 C 266.752 107.787,266.897 107.774,266.333 107.667 C 265.563 107.521,264.223 107.451,264.347 107.563 M251.417 108.075 C 232.685 111.640,217.877 126.533,214.412 145.289 C 214.186 146.517,214.006 147.723,214.013 147.969 C 214.020 148.215,214.207 147.367,214.428 146.083 C 217.781 126.658,232.906 111.524,252.417 108.075 C 253.608 107.865,254.321 107.693,254.000 107.693 C 253.679 107.694,252.517 107.865,251.417 108.075 M269.336 108.318 C 288.151 112.194,302.654 127.138,305.984 146.083 C 306.161 147.092,306.312 147.692,306.318 147.417 C 306.325 147.142,306.105 145.805,305.830 144.447 C 302.468 127.859,290.007 114.181,273.777 109.262 C 271.787 108.659,268.077 107.826,267.456 107.844 C 267.251 107.849,268.097 108.063,269.336 108.318 M258.883 119.124 C 259.690 119.155,260.965 119.155,261.717 119.124 C 262.468 119.093,261.808 119.068,260.250 119.068 C 258.692 119.068,258.077 119.094,258.883 119.124 M256.292 119.284 C 256.498 119.324,256.835 119.324,257.042 119.284 C 257.248 119.245,257.079 119.212,256.667 119.212 C 256.254 119.212,256.085 119.245,256.292 119.284 M264.833 119.435 C 280.080 121.474,292.067 133.352,294.586 148.917 C 294.784 150.138,294.815 150.224,294.751 149.380 C 294.162 141.559,288.850 132.036,282.083 126.669 C 276.789 122.470,268.378 119.051,263.667 119.184 C 263.346 119.194,263.871 119.306,264.833 119.435 M255.042 119.448 C 255.202 119.490,255.465 119.490,255.625 119.448 C 255.785 119.406,255.654 119.372,255.333 119.372 C 255.012 119.372,254.881 119.406,255.042 119.448 M252.500 119.855 C 238.316 123.113,226.662 136.175,225.757 149.829 C 225.684 150.941,225.702 150.885,225.921 149.333 C 227.971 134.796,238.730 123.090,252.947 119.929 C 253.939 119.709,254.563 119.529,254.333 119.529 C 254.104 119.530,253.279 119.677,252.500 119.855 M329.286 146.833 C 329.335 147.704,329.404 148.448,329.438 148.486 C 329.548 148.609,329.475 146.944,329.333 146.083 C 329.235 145.489,329.221 145.704,329.286 146.833 M190.885 148.250 C 190.886 148.800,190.917 149.005,190.954 148.705 C 190.991 148.406,190.990 147.956,190.952 147.705 C 190.914 147.455,190.884 147.700,190.885 148.250 M306.379 148.667 C 306.379 149.079,306.411 149.248,306.451 149.042 C 306.491 148.835,306.491 148.498,306.451 148.292 C 306.411 148.085,306.379 148.254,306.379 148.667 M213.881 149.250 C 213.882 149.708,213.915 149.876,213.953 149.623 C 213.991 149.369,213.990 148.994,213.951 148.789 C 213.911 148.584,213.880 148.792,213.881 149.250 M329.557 149.917 C 329.558 150.650,329.587 150.929,329.622 150.537 C 329.657 150.145,329.657 149.545,329.621 149.204 C 329.585 148.863,329.557 149.183,329.557 149.917 M190.730 151.333 C 190.730 152.387,190.757 152.819,190.790 152.292 C 190.823 151.765,190.823 150.902,190.790 150.375 C 190.757 149.848,190.730 150.279,190.730 151.333 M306.553 150.500 C 306.553 151.096,306.584 151.340,306.621 151.042 C 306.658 150.744,306.658 150.256,306.621 149.958 C 306.584 149.660,306.553 149.904,306.553 150.500 M213.738 153.917 C 213.738 155.933,213.762 156.735,213.791 155.699 C 213.820 154.663,213.820 153.013,213.791 152.032 C 213.762 151.052,213.738 151.900,213.738 153.917 M294.889 151.667 C 294.889 152.354,294.919 152.635,294.955 152.292 C 294.991 151.948,294.991 151.385,294.955 151.042 C 294.919 150.698,294.889 150.979,294.889 151.667 M225.568 153.833 C 225.568 155.346,225.593 155.965,225.624 155.208 C 225.655 154.452,225.655 153.215,225.624 152.458 C 225.593 151.702,225.568 152.321,225.568 153.833 M329.731 153.917 C 329.732 155.108,329.758 155.574,329.790 154.951 C 329.823 154.329,329.822 153.354,329.790 152.785 C 329.757 152.216,329.731 152.725,329.731 153.917 M306.729 153.917 C 306.729 154.925,306.757 155.316,306.790 154.786 C 306.823 154.255,306.823 153.430,306.789 152.952 C 306.756 152.474,306.729 152.908,306.729 153.917 M190.643 154.590 C 190.592 154.777,181.000 168.802,169.327 185.757 C 157.655 202.711,147.590 217.333,146.960 218.250 L 145.814 219.917 143.032 220.006 L 140.250 220.096 143.083 220.126 L 145.917 220.156 163.250 194.961 C 172.783 181.104,182.895 166.407,185.721 162.301 C 188.827 157.787,190.834 154.719,190.797 154.543 C 190.745 154.289,190.724 154.295,190.643 154.590 M294.889 156.000 C 294.889 156.688,294.919 156.969,294.955 156.625 C 294.991 156.281,294.991 155.719,294.955 155.375 C 294.919 155.031,294.889 155.313,294.889 156.000 M306.553 157.333 C 306.553 157.929,306.584 158.173,306.621 157.875 C 306.658 157.577,306.658 157.090,306.621 156.792 C 306.584 156.494,306.553 156.737,306.553 157.333 M225.758 157.837 C 226.457 168.439,234.228 179.678,244.460 184.884 C 248.219 186.797,254.224 188.556,256.750 188.485 C 257.025 188.477,256.350 188.332,255.250 188.163 C 239.951 185.810,228.104 173.789,225.934 158.417 C 225.714 156.862,225.688 156.774,225.758 157.837 M329.557 157.917 C 329.558 158.650,329.587 158.929,329.622 158.537 C 329.657 158.145,329.657 157.545,329.621 157.204 C 329.585 156.863,329.557 157.183,329.557 157.917 M294.533 158.863 C 292.645 172.919,281.248 185.008,267.243 187.812 C 266.330 187.995,265.396 188.182,265.167 188.228 C 264.938 188.274,265.200 188.273,265.750 188.224 C 274.654 187.445,284.881 180.488,290.217 171.583 C 292.596 167.613,295.079 160.095,294.802 157.699 C 294.773 157.452,294.652 157.976,294.533 158.863 M378.518 157.833 C 378.512 157.971,378.611 158.458,378.738 158.917 C 378.866 159.375,378.975 159.637,378.982 159.500 C 378.988 159.362,378.889 158.875,378.762 158.417 C 378.634 157.958,378.525 157.696,378.518 157.833 M213.881 158.583 C 213.882 159.042,213.915 159.209,213.953 158.956 C 213.991 158.703,213.990 158.328,213.951 158.123 C 213.911 157.918,213.880 158.125,213.881 158.583 M306.379 159.167 C 306.379 159.579,306.411 159.748,306.451 159.542 C 306.491 159.335,306.491 158.998,306.451 158.792 C 306.411 158.585,306.379 158.754,306.379 159.167 M329.270 160.812 C 329.205 161.671,329.185 162.408,329.227 162.449 C 329.331 162.553,329.554 159.745,329.463 159.472 C 329.422 159.350,329.335 159.953,329.270 160.812 M214.023 159.864 C 214.010 160.110,214.186 161.316,214.412 162.544 C 217.793 180.849,231.929 195.480,250.117 199.502 C 250.923 199.680,251.733 199.821,251.917 199.815 C 252.100 199.809,251.387 199.618,250.333 199.389 C 231.212 195.250,217.388 180.152,214.113 159.833 C 214.046 159.419,214.045 159.419,214.023 159.864 M20.759 160.426 C 20.697 160.760,20.679 161.067,20.719 161.108 C 20.760 161.149,20.845 160.909,20.907 160.574 C 20.970 160.240,20.988 159.933,20.947 159.892 C 20.907 159.851,20.822 160.091,20.759 160.426 M379.036 160.083 C 379.034 160.267,379.128 160.792,379.246 161.250 C 379.364 161.708,379.462 161.933,379.464 161.750 C 379.466 161.567,379.372 161.042,379.254 160.583 C 379.136 160.125,379.038 159.900,379.036 160.083 M306.032 161.408 C 303.239 180.527,287.265 196.536,267.688 199.837 C 266.714 200.001,266.104 200.142,266.333 200.151 C 266.972 200.174,269.536 199.699,271.667 199.164 C 288.897 194.836,302.324 180.753,305.841 163.322 C 306.122 161.931,306.329 160.595,306.301 160.354 C 306.273 160.114,306.152 160.588,306.032 161.408 M20.083 163.667 C 19.922 164.498,19.823 165.212,19.863 165.252 C 19.904 165.293,20.068 164.644,20.227 163.811 C 20.387 162.977,20.486 162.264,20.447 162.225 C 20.409 162.186,20.245 162.835,20.083 163.667 M379.527 162.333 C 379.520 162.471,379.616 163.033,379.740 163.583 C 379.864 164.133,379.966 164.396,379.967 164.167 C 379.968 163.699,379.547 161.942,379.527 162.333 M328.627 165.454 C 323.962 194.065,301.306 217.018,272.417 222.402 C 271.225 222.624,270.438 222.812,270.667 222.819 C 271.379 222.840,276.632 221.715,279.128 221.007 C 303.238 214.170,321.985 194.628,327.844 170.223 C 328.431 167.778,329.206 163.430,329.135 162.981 C 329.106 162.803,328.878 163.916,328.627 165.454 M19.591 166.258 C 19.527 166.683,19.509 167.065,19.551 167.106 C 19.592 167.148,19.679 166.834,19.742 166.409 C 19.806 165.984,19.824 165.602,19.783 165.560 C 19.741 165.519,19.655 165.832,19.591 166.258 M380.206 165.833 C 380.206 166.063,380.263 166.475,380.333 166.750 C 380.447 167.196,380.461 167.205,380.461 166.833 C 380.461 166.604,380.403 166.192,380.333 165.917 C 380.220 165.471,380.206 165.462,380.206 165.833 M19.176 168.593 C 19.063 169.290,19.005 169.894,19.045 169.934 C 19.086 169.975,19.212 169.438,19.324 168.741 C 19.437 168.043,19.495 167.440,19.455 167.399 C 19.414 167.358,19.288 167.895,19.176 168.593 M380.530 167.583 C 380.525 167.767,380.663 168.667,380.837 169.583 C 381.019 170.539,381.117 170.859,381.066 170.333 C 380.961 169.246,380.544 167.104,380.530 167.583 M18.872 170.667 C 18.872 170.987,18.906 171.119,18.948 170.958 C 18.990 170.798,18.990 170.535,18.948 170.375 C 18.906 170.215,18.872 170.346,18.872 170.667 M18.539 172.833 C 18.539 173.154,18.573 173.285,18.615 173.125 C 18.657 172.965,18.657 172.702,18.615 172.542 C 18.573 172.381,18.539 172.512,18.539 172.833 M381.372 172.833 C 381.372 173.154,381.406 173.285,381.448 173.125 C 381.490 172.965,381.490 172.702,381.448 172.542 C 381.406 172.381,381.372 172.512,381.372 172.833 M18.372 174.000 C 18.372 174.321,18.406 174.452,18.448 174.292 C 18.490 174.131,18.490 173.869,18.448 173.708 C 18.406 173.548,18.372 173.679,18.372 174.000 M381.539 174.000 C 381.539 174.321,381.573 174.452,381.615 174.292 C 381.657 174.131,381.657 173.869,381.615 173.708 C 381.573 173.548,381.539 173.679,381.539 174.000 M18.209 175.250 C 18.211 175.617,18.245 175.747,18.285 175.540 C 18.324 175.332,18.323 175.032,18.281 174.873 C 18.239 174.714,18.207 174.883,18.209 175.250 M381.709 175.250 C 381.711 175.617,381.745 175.747,381.785 175.540 C 381.824 175.332,381.823 175.032,381.781 174.873 C 381.739 174.714,381.707 174.883,381.709 175.250 M18.039 176.500 C 18.039 176.821,18.073 176.952,18.115 176.792 C 18.157 176.631,18.157 176.369,18.115 176.208 C 18.073 176.048,18.039 176.179,18.039 176.500 M381.875 176.583 C 381.877 176.950,381.911 177.080,381.951 176.873 C 381.991 176.666,381.990 176.366,381.948 176.206 C 381.906 176.047,381.874 176.217,381.875 176.583 M17.875 177.917 C 17.877 178.283,17.911 178.414,17.951 178.206 C 17.991 177.999,17.990 177.699,17.948 177.540 C 17.906 177.380,17.874 177.550,17.875 177.917 M382.042 177.917 C 382.044 178.283,382.078 178.414,382.118 178.206 C 382.158 177.999,382.156 177.699,382.115 177.540 C 382.073 177.380,382.040 177.550,382.042 177.917 M17.712 179.333 C 17.712 179.746,17.745 179.915,17.784 179.708 C 17.824 179.502,17.824 179.165,17.784 178.958 C 17.745 178.752,17.712 178.921,17.712 179.333 M382.212 179.333 C 382.212 179.746,382.245 179.915,382.284 179.708 C 382.324 179.502,382.324 179.165,382.284 178.958 C 382.245 178.752,382.212 178.921,382.212 179.333 M17.545 180.833 C 17.545 181.246,17.578 181.415,17.618 181.208 C 17.657 181.002,17.657 180.665,17.618 180.458 C 17.578 180.252,17.545 180.421,17.545 180.833 M382.379 180.833 C 382.379 181.246,382.411 181.415,382.451 181.208 C 382.491 181.002,382.491 180.665,382.451 180.458 C 382.411 180.252,382.379 180.421,382.379 180.833 M17.381 182.583 C 17.382 183.042,17.415 183.209,17.453 182.956 C 17.491 182.703,17.490 182.328,17.451 182.123 C 17.411 181.918,17.380 182.125,17.381 182.583 M382.548 182.583 C 382.549 183.042,382.581 183.209,382.620 182.956 C 382.658 182.703,382.657 182.328,382.617 182.123 C 382.578 181.918,382.546 182.125,382.548 182.583 M17.217 184.500 C 17.217 185.004,17.248 185.210,17.286 184.958 C 17.324 184.706,17.324 184.294,17.286 184.042 C 17.248 183.790,17.217 183.996,17.217 184.500 M382.717 184.500 C 382.717 185.004,382.748 185.210,382.786 184.958 C 382.824 184.706,382.824 184.294,382.786 184.042 C 382.748 183.790,382.717 183.996,382.717 184.500 M17.033 186.767 L 17.000 187.951 32.208 194.213 C 96.996 220.886,115.523 228.500,115.640 228.500 C 115.713 228.500,116.593 228.005,117.595 227.401 C 123.008 224.135,132.697 220.682,136.486 220.668 C 136.708 220.667,136.841 220.619,136.782 220.560 C 136.504 220.282,131.082 221.456,128.083 222.443 C 124.149 223.737,120.256 225.515,117.159 227.430 L 115.655 228.360 104.119 223.610 C 97.775 220.997,75.971 212.021,55.667 203.664 C 35.362 195.307,18.397 188.318,17.966 188.134 L 17.181 187.798 17.123 186.691 L 17.065 185.583 17.033 186.767 M382.885 186.750 C 382.886 187.300,382.917 187.505,382.954 187.205 C 382.991 186.906,382.990 186.456,382.952 186.205 C 382.914 185.955,382.884 186.200,382.885 186.750 M383.056 189.333 C 383.056 190.021,383.085 190.302,383.121 189.958 C 383.157 189.615,383.157 189.052,383.121 188.708 C 383.085 188.365,383.056 188.646,383.056 189.333 M263.625 188.451 C 263.831 188.491,264.169 188.491,264.375 188.451 C 264.581 188.411,264.412 188.379,264.000 188.379 C 263.587 188.379,263.419 188.411,263.625 188.451 M258.875 188.624 C 259.677 188.655,260.990 188.655,261.792 188.624 C 262.594 188.594,261.938 188.569,260.333 188.569 C 258.729 188.569,258.073 188.594,258.875 188.624 M383.229 193.083 C 383.229 194.092,383.257 194.483,383.290 193.952 C 383.323 193.422,383.323 192.597,383.289 192.119 C 383.256 191.641,383.229 192.075,383.229 193.083 M383.402 199.833 C 383.402 201.438,383.427 202.094,383.457 201.292 C 383.488 200.490,383.488 199.177,383.457 198.375 C 383.427 197.573,383.402 198.229,383.402 199.833 M253.542 200.115 C 253.702 200.157,253.965 200.157,254.125 200.115 C 254.285 200.073,254.154 200.039,253.833 200.039 C 253.512 200.039,253.381 200.073,253.542 200.115 M254.877 200.286 C 255.131 200.325,255.506 200.324,255.711 200.284 C 255.916 200.244,255.708 200.213,255.250 200.214 C 254.792 200.216,254.624 200.248,254.877 200.286 M264.711 200.286 C 264.964 200.325,265.339 200.324,265.544 200.284 C 265.749 200.244,265.542 200.213,265.083 200.214 C 264.625 200.216,264.457 200.248,264.711 200.286 M256.796 200.456 C 257.188 200.491,257.788 200.490,258.129 200.454 C 258.471 200.419,258.150 200.390,257.417 200.390 C 256.683 200.391,256.404 200.420,256.796 200.456 M262.296 200.456 C 262.688 200.491,263.288 200.490,263.629 200.454 C 263.971 200.419,263.650 200.390,262.917 200.390 C 262.183 200.391,261.904 200.420,262.296 200.456 M383.229 206.583 C 383.229 207.592,383.257 207.983,383.290 207.452 C 383.323 206.922,383.323 206.097,383.289 205.619 C 383.256 205.141,383.229 205.575,383.229 206.583 M383.056 210.333 C 383.056 211.021,383.085 211.302,383.121 210.958 C 383.157 210.615,383.157 210.052,383.121 209.708 C 383.085 209.365,383.056 209.646,383.056 210.333 M382.885 212.917 C 382.886 213.467,382.917 213.672,382.954 213.372 C 382.991 213.072,382.990 212.622,382.952 212.372 C 382.914 212.122,382.884 212.367,382.885 212.917 M382.717 215.167 C 382.717 215.671,382.748 215.877,382.786 215.625 C 382.824 215.373,382.824 214.960,382.786 214.708 C 382.748 214.456,382.717 214.662,382.717 215.167 M382.548 217.083 C 382.549 217.542,382.581 217.709,382.620 217.456 C 382.658 217.203,382.657 216.828,382.617 216.623 C 382.578 216.418,382.546 216.625,382.548 217.083 M382.379 218.833 C 382.379 219.246,382.411 219.415,382.451 219.208 C 382.491 219.002,382.491 218.665,382.451 218.458 C 382.411 218.252,382.379 218.421,382.379 218.833 M382.212 220.333 C 382.212 220.746,382.245 220.915,382.284 220.708 C 382.324 220.502,382.324 220.165,382.284 219.958 C 382.245 219.752,382.212 219.921,382.212 220.333 M137.667 220.341 C 137.218 220.416,137.553 220.431,138.500 220.378 C 139.371 220.330,140.115 220.263,140.153 220.229 C 140.267 220.126,138.473 220.207,137.667 220.341 M382.042 221.750 C 382.044 222.117,382.078 222.247,382.118 222.040 C 382.158 221.832,382.156 221.532,382.115 221.373 C 382.073 221.214,382.040 221.383,382.042 221.750 M381.875 223.083 C 381.877 223.450,381.911 223.580,381.951 223.373 C 381.991 223.166,381.990 222.866,381.948 222.706 C 381.906 222.547,381.874 222.717,381.875 223.083 M269.375 222.948 C 269.535 222.990,269.798 222.990,269.958 222.948 C 270.119 222.906,269.987 222.872,269.667 222.872 C 269.346 222.872,269.215 222.906,269.375 222.948 M266.833 223.167 C 265.921 223.278,265.920 223.279,266.667 223.292 C 267.079 223.298,267.792 223.246,268.250 223.174 C 269.363 223.001,268.236 222.995,266.833 223.167 M264.121 223.454 C 264.417 223.490,264.942 223.491,265.288 223.455 C 265.634 223.419,265.392 223.389,264.750 223.388 C 264.108 223.387,263.825 223.417,264.121 223.454 M226.583 246.252 C 191.330 271.447,194.162 269.390,194.178 269.790 C 194.190 270.069,194.196 270.069,194.306 269.791 C 194.370 269.630,208.845 259.188,226.474 246.587 L 258.527 223.676 260.805 223.625 L 263.083 223.573 260.750 223.537 L 258.417 223.501 226.583 246.252 M381.709 224.417 C 381.711 224.783,381.745 224.914,381.785 224.706 C 381.824 224.499,381.823 224.199,381.781 224.040 C 381.739 223.880,381.707 224.050,381.709 224.417 M381.539 225.667 C 381.539 225.987,381.573 226.119,381.615 225.958 C 381.657 225.798,381.657 225.535,381.615 225.375 C 381.573 225.215,381.539 225.346,381.539 225.667 M381.372 226.833 C 381.372 227.154,381.406 227.285,381.448 227.125 C 381.490 226.965,381.490 226.702,381.448 226.542 C 381.406 226.381,381.372 226.512,381.372 226.833 M380.769 230.353 C 380.607 231.367,380.508 232.230,380.548 232.270 C 380.588 232.310,380.754 231.513,380.917 230.500 C 381.080 229.487,381.179 228.624,381.138 228.583 C 381.097 228.541,380.931 229.338,380.769 230.353 M140.629 231.622 C 141.021 231.657,141.621 231.657,141.963 231.621 C 142.304 231.585,141.983 231.557,141.250 231.557 C 140.517 231.558,140.237 231.587,140.629 231.622 M145.292 231.622 C 145.681 231.657,146.319 231.657,146.708 231.622 C 147.098 231.587,146.779 231.558,146.000 231.558 C 145.221 231.558,144.902 231.587,145.292 231.622 M137.333 231.915 C 134.824 232.344,129.693 233.749,129.896 233.952 C 129.937 233.993,130.783 233.764,131.777 233.444 C 133.738 232.813,136.266 232.236,138.500 231.910 C 139.308 231.792,139.630 231.703,139.250 231.702 C 138.883 231.701,138.021 231.797,137.333 231.915 M149.417 231.986 C 166.389 234.679,179.193 247.295,182.332 264.417 C 182.542 265.567,182.634 265.878,182.578 265.253 C 181.103 248.875,165.007 233.016,148.583 231.758 C 147.746 231.694,147.982 231.759,149.417 231.986 M380.258 233.258 C 380.194 233.683,380.176 234.065,380.217 234.106 C 380.259 234.148,380.345 233.834,380.409 233.409 C 380.473 232.984,380.491 232.602,380.449 232.560 C 380.408 232.519,380.321 232.832,380.258 233.258 M130.000 234.487 C 130.137 234.565,135.275 236.705,141.417 239.241 C 147.558 241.776,153.558 244.328,154.750 244.911 C 163.070 248.983,168.844 256.814,170.422 266.167 C 170.538 266.854,170.640 267.203,170.650 266.943 C 170.659 266.682,170.517 265.732,170.333 264.832 C 168.615 256.403,163.260 249.204,155.667 245.117 C 153.725 244.072,128.483 233.617,130.000 234.487 M379.600 236.683 C 379.539 237.065,379.521 237.410,379.561 237.450 C 379.601 237.490,379.686 237.212,379.750 236.833 C 379.814 236.454,379.831 236.109,379.789 236.067 C 379.746 236.024,379.661 236.301,379.600 236.683 M379.178 238.678 C 379.067 239.239,379.009 239.732,379.049 239.771 C 379.089 239.811,379.212 239.384,379.322 238.822 C 379.433 238.261,379.491 237.768,379.451 237.729 C 379.411 237.689,379.288 238.116,379.178 238.678 M378.679 240.929 C 378.564 241.440,378.502 241.891,378.542 241.931 C 378.581 241.970,378.707 241.583,378.821 241.071 C 378.936 240.560,378.998 240.109,378.958 240.069 C 378.919 240.030,378.793 240.417,378.679 240.929 M377.932 244.112 C 362.993 305.987,313.754 357.583,252.541 375.505 C 251.509 375.807,250.698 376.087,250.738 376.127 C 250.861 376.250,257.377 374.205,261.333 372.801 C 319.191 352.268,363.054 304.039,377.997 244.522 C 378.282 243.389,378.491 242.389,378.461 242.301 C 378.432 242.213,378.194 243.028,377.932 244.112 M24.500 253.352 C 24.500 254.113,27.668 263.158,29.746 268.333 C 49.771 318.189,91.215 357.146,142.159 374.001 C 146.909 375.572,156.137 378.186,156.832 378.156 C 156.970 378.150,155.583 377.746,153.750 377.258 C 97.765 362.350,52.873 323.306,30.713 270.250 C 28.553 265.077,24.474 253.638,24.707 253.405 C 24.748 253.364,28.749 254.969,33.599 256.972 C 38.449 258.975,54.024 265.403,68.211 271.257 L 94.005 281.899 94.174 282.575 C 99.251 302.788,114.842 317.470,134.980 321.001 C 136.023 321.184,137.073 321.325,137.313 321.314 C 137.553 321.304,137.132 321.199,136.377 321.081 C 116.182 317.923,99.878 303.402,94.767 284.020 C 94.444 282.794,94.158 281.773,94.131 281.751 C 94.105 281.730,91.308 280.569,87.917 279.172 C 84.525 277.774,76.387 274.419,69.833 271.716 C 63.279 269.013,53.679 265.054,48.500 262.918 C 43.321 260.782,35.883 257.715,31.972 256.101 C 24.728 253.112,24.500 253.028,24.500 253.352 M182.717 267.167 C 182.717 267.671,182.748 267.877,182.786 267.625 C 182.824 267.373,182.824 266.960,182.786 266.708 C 182.748 266.456,182.717 266.662,182.717 267.167 M170.718 268.417 C 170.719 268.967,170.750 269.172,170.787 268.872 C 170.825 268.572,170.824 268.122,170.786 267.872 C 170.748 267.622,170.717 267.867,170.718 268.417 M182.902 270.917 C 182.901 272.475,182.926 273.135,182.957 272.383 C 182.988 271.631,182.988 270.356,182.958 269.550 C 182.927 268.743,182.902 269.358,182.902 270.917 M194.227 273.167 C 194.227 274.037,194.255 274.394,194.289 273.958 C 194.324 273.523,194.324 272.810,194.289 272.375 C 194.255 271.940,194.227 272.296,194.227 273.167 M170.718 272.750 C 170.719 273.300,170.750 273.505,170.787 273.205 C 170.825 272.906,170.824 272.456,170.786 272.205 C 170.748 271.955,170.717 272.200,170.718 272.750 M170.520 274.250 C 170.473 275.182,169.841 277.850,169.245 279.638 C 165.712 290.227,156.372 297.749,145.000 299.163 L 143.750 299.318 145.061 299.243 C 154.082 298.726,163.442 292.251,167.840 283.487 C 169.260 280.657,170.845 275.326,170.619 274.139 C 170.558 273.814,170.541 273.832,170.520 274.250 M182.618 275.167 C 181.008 292.780,166.199 307.737,148.215 309.913 C 147.226 310.033,146.707 310.139,147.062 310.149 C 148.924 310.201,154.211 309.043,157.274 307.912 C 167.946 303.973,176.621 295.297,180.577 284.607 C 181.734 281.481,182.953 275.838,182.802 274.303 C 182.772 273.999,182.689 274.387,182.618 275.167 M193.879 276.668 C 191.507 298.884,173.677 317.451,151.333 320.971 C 150.188 321.152,149.449 321.307,149.692 321.316 C 150.382 321.343,153.825 320.719,155.971 320.178 C 174.914 315.404,189.359 300.291,193.321 281.099 C 193.856 278.507,194.231 275.794,194.141 275.160 C 194.109 274.934,193.991 275.613,193.879 276.668 M108.167 287.922 C 108.167 289.394,113.020 296.211,116.354 299.421 C 122.197 305.047,130.896 309.279,137.920 309.911 C 138.545 309.967,138.233 309.876,137.083 309.665 C 126.231 307.676,117.118 301.786,111.168 292.918 C 110.032 291.225,108.235 288.037,108.356 287.928 C 108.389 287.898,113.554 290.007,119.833 292.614 C 134.084 298.531,135.621 299.059,139.083 299.229 C 139.817 299.265,140.192 299.266,139.917 299.230 C 134.320 298.508,135.748 299.014,115.167 290.458 C 107.814 287.401,108.167 287.529,108.167 287.922 M141.380 299.456 C 141.818 299.490,142.493 299.490,142.880 299.455 C 143.267 299.420,142.908 299.392,142.083 299.392 C 141.258 299.393,140.942 299.422,141.380 299.456 M139.377 310.120 C 139.631 310.158,140.006 310.157,140.211 310.117 C 140.416 310.078,140.208 310.046,139.750 310.048 C 139.292 310.049,139.124 310.081,139.377 310.120 M142.217 310.291 C 143.023 310.321,144.298 310.321,145.050 310.291 C 145.802 310.260,145.142 310.235,143.583 310.235 C 142.025 310.235,141.410 310.260,142.217 310.291 M138.211 321.453 C 138.464 321.491,138.839 321.490,139.044 321.451 C 139.249 321.411,139.042 321.380,138.583 321.381 C 138.125 321.382,137.957 321.415,138.211 321.453 M148.044 321.453 C 148.297 321.491,148.672 321.490,148.877 321.451 C 149.082 321.411,148.875 321.380,148.417 321.381 C 147.958 321.382,147.791 321.415,148.044 321.453 M140.213 321.623 C 140.652 321.657,141.327 321.657,141.713 321.622 C 142.100 321.587,141.742 321.559,140.917 321.559 C 140.092 321.560,139.775 321.588,140.213 321.623 M145.458 321.622 C 145.848 321.657,146.485 321.657,146.875 321.622 C 147.265 321.587,146.946 321.558,146.167 321.558 C 145.387 321.558,145.069 321.587,145.458 321.622 M249.750 376.333 C 249.540 376.424,249.509 376.477,249.667 376.477 C 249.804 376.477,250.067 376.412,250.250 376.333 C 250.460 376.243,250.491 376.190,250.333 376.190 C 250.196 376.190,249.933 376.255,249.750 376.333 M248.250 376.756 C 247.593 376.984,247.592 376.986,248.167 376.888 C 248.847 376.774,249.542 376.520,249.167 376.523 C 249.029 376.525,248.617 376.629,248.250 376.756 M243.583 377.921 C 241.658 378.408,240.196 378.811,240.333 378.818 C 240.630 378.834,247.360 377.196,247.476 377.080 C 247.635 376.920,247.020 377.053,243.583 377.921 M157.917 378.428 C 158.375 378.556,158.862 378.655,159.000 378.649 C 159.137 378.642,158.875 378.533,158.417 378.405 C 157.958 378.277,157.471 378.178,157.333 378.185 C 157.196 378.191,157.458 378.301,157.917 378.428 M160.417 379.006 C 161.058 379.171,161.733 379.304,161.917 379.302 C 162.100 379.300,161.688 379.160,161.000 378.990 C 160.313 378.819,159.637 378.686,159.500 378.693 C 159.362 378.699,159.775 378.840,160.417 379.006 M239.000 379.000 C 238.670 379.106,238.653 379.133,238.917 379.133 C 239.100 379.133,239.438 379.073,239.667 379.000 C 239.997 378.894,240.014 378.867,239.750 378.867 C 239.567 378.867,239.229 378.927,239.000 379.000 M235.750 379.679 C 234.969 379.860,234.727 379.954,235.167 379.905 C 236.066 379.804,237.891 379.370,237.417 379.370 C 237.233 379.370,236.483 379.509,235.750 379.679 M164.417 379.833 C 165.122 380.013,165.727 380.013,165.167 379.833 C 164.938 379.760,164.563 379.701,164.333 379.703 C 163.959 379.706,163.968 379.719,164.417 379.833 M233.083 380.167 C 232.637 380.280,232.628 380.294,233.000 380.294 C 233.229 380.294,233.642 380.237,233.917 380.167 C 234.363 380.053,234.372 380.039,234.000 380.039 C 233.771 380.039,233.358 380.097,233.083 380.167 M230.167 380.679 C 229.147 380.876,228.910 380.954,229.500 380.898 C 230.622 380.791,232.744 380.373,232.167 380.373 C 231.938 380.373,231.037 380.510,230.167 380.679 M168.917 380.667 C 169.192 380.737,169.642 380.794,169.917 380.794 C 170.337 380.795,170.311 380.773,169.750 380.657 C 168.906 380.482,168.224 380.490,168.917 380.667 M172.083 381.176 C 172.450 381.252,172.938 381.310,173.167 381.305 C 173.434 381.298,173.344 381.246,172.917 381.157 C 172.550 381.081,172.063 381.024,171.833 381.029 C 171.566 381.035,171.656 381.088,172.083 381.176 M226.708 381.282 C 226.869 381.323,227.131 381.323,227.292 381.282 C 227.452 381.240,227.321 381.205,227.000 381.205 C 226.679 381.205,226.548 381.240,226.708 381.282 M173.960 381.451 C 174.168 381.491,174.468 381.490,174.627 381.448 C 174.786 381.406,174.617 381.374,174.250 381.375 C 173.883 381.377,173.753 381.411,173.960 381.451 M225.542 381.448 C 225.702 381.490,225.965 381.490,226.125 381.448 C 226.285 381.406,226.154 381.372,225.833 381.372 C 225.512 381.372,225.381 381.406,225.542 381.448 M175.208 381.615 C 175.369 381.657,175.631 381.657,175.792 381.615 C 175.952 381.573,175.821 381.539,175.500 381.539 C 175.179 381.539,175.048 381.573,175.208 381.615 M224.375 381.615 C 224.535 381.657,224.798 381.657,224.958 381.615 C 225.119 381.573,224.987 381.539,224.667 381.539 C 224.346 381.539,224.215 381.573,224.375 381.615 M176.460 381.785 C 176.668 381.824,176.968 381.823,177.127 381.781 C 177.286 381.739,177.117 381.707,176.750 381.709 C 176.383 381.711,176.253 381.745,176.460 381.785 M222.960 381.785 C 223.168 381.824,223.468 381.823,223.627 381.781 C 223.786 381.739,223.617 381.707,223.250 381.709 C 222.883 381.711,222.753 381.745,222.960 381.785 M177.794 381.951 C 178.001 381.991,178.301 381.990,178.460 381.948 C 178.620 381.906,178.450 381.874,178.083 381.875 C 177.717 381.877,177.586 381.911,177.794 381.951 M221.627 381.951 C 221.834 381.991,222.134 381.990,222.294 381.948 C 222.453 381.906,222.283 381.874,221.917 381.875 C 221.550 381.877,221.420 381.911,221.627 381.951 M179.294 382.118 C 179.501 382.158,179.801 382.156,179.960 382.115 C 180.120 382.073,179.950 382.040,179.583 382.042 C 179.217 382.044,179.086 382.078,179.294 382.118 M220.294 382.118 C 220.501 382.158,220.801 382.156,220.960 382.115 C 221.120 382.073,220.950 382.040,220.583 382.042 C 220.217 382.044,220.086 382.078,220.294 382.118 M180.792 382.284 C 180.998 382.324,181.335 382.324,181.542 382.284 C 181.748 382.245,181.579 382.212,181.167 382.212 C 180.754 382.212,180.585 382.245,180.792 382.284 M218.544 382.286 C 218.797 382.325,219.172 382.324,219.377 382.284 C 219.582 382.244,219.375 382.213,218.917 382.214 C 218.458 382.216,218.291 382.248,218.544 382.286 M182.544 382.453 C 182.797 382.491,183.172 382.490,183.377 382.451 C 183.582 382.411,183.375 382.380,182.917 382.381 C 182.458 382.382,182.291 382.415,182.544 382.453 M216.877 382.453 C 217.131 382.491,217.506 382.490,217.711 382.451 C 217.916 382.411,217.708 382.380,217.250 382.381 C 216.792 382.382,216.624 382.415,216.877 382.453 M184.208 382.619 C 184.460 382.658,184.873 382.658,185.125 382.619 C 185.377 382.581,185.171 382.550,184.667 382.550 C 184.162 382.550,183.956 382.581,184.208 382.619 M214.875 382.619 C 215.127 382.658,215.540 382.658,215.792 382.619 C 216.044 382.581,215.838 382.550,215.333 382.550 C 214.829 382.550,214.623 382.581,214.875 382.619 M186.461 382.787 C 186.761 382.825,187.211 382.824,187.461 382.786 C 187.712 382.748,187.467 382.717,186.917 382.718 C 186.367 382.719,186.162 382.750,186.461 382.787 M212.628 382.787 C 212.928 382.825,213.378 382.824,213.628 382.786 C 213.878 382.748,213.633 382.717,213.083 382.718 C 212.533 382.719,212.328 382.750,212.628 382.787 M188.963 382.956 C 189.355 382.991,189.955 382.990,190.296 382.954 C 190.637 382.919,190.317 382.890,189.583 382.890 C 188.850 382.891,188.571 382.920,188.963 382.956 M209.788 382.954 C 210.084 382.990,210.609 382.991,210.955 382.955 C 211.300 382.919,211.058 382.889,210.417 382.888 C 209.775 382.887,209.492 382.917,209.788 382.954 M192.548 383.123 C 193.078 383.157,193.903 383.156,194.381 383.123 C 194.859 383.089,194.425 383.062,193.417 383.062 C 192.408 383.063,192.017 383.090,192.548 383.123 M205.792 383.123 C 206.273 383.157,207.060 383.157,207.542 383.123 C 208.023 383.089,207.629 383.062,206.667 383.062 C 205.704 383.062,205.310 383.089,205.792 383.123 M199.201 383.290 C 199.816 383.322,200.866 383.322,201.534 383.291 C 202.203 383.259,201.700 383.233,200.417 383.232 C 199.133 383.232,198.586 383.258,199.201 383.290 " stroke="none" fill="#838383" fill-rule="evenodd"></path><path id="path2" d="" stroke="none" fill="#acacac" fill-rule="evenodd"></path><path id="path3" d="M196.627 16.618 C 196.834 16.658,197.134 16.656,197.294 16.615 C 197.453 16.573,197.283 16.540,196.917 16.542 C 196.550 16.544,196.420 16.578,196.627 16.618 M202.794 16.618 C 203.001 16.658,203.301 16.656,203.460 16.615 C 203.620 16.573,203.450 16.540,203.083 16.542 C 202.717 16.544,202.586 16.578,202.794 16.618 M327.167 67.917 C 327.478 68.237,327.770 68.500,327.815 68.500 C 327.861 68.500,327.644 68.237,327.333 67.917 C 327.022 67.596,326.730 67.333,326.685 67.333 C 326.639 67.333,326.856 67.596,327.167 67.917 M72.073 68.542 L 71.583 69.083 72.125 68.594 C 72.630 68.138,72.743 68.000,72.615 68.000 C 72.586 68.000,72.342 68.244,72.073 68.542 M69.079 71.542 L 67.917 72.750 69.125 71.588 C 70.247 70.508,70.409 70.333,70.287 70.333 C 70.262 70.333,69.718 70.877,69.079 71.542 M331.333 72.052 C 331.333 72.081,331.577 72.325,331.875 72.594 L 332.417 73.083 331.927 72.542 C 331.471 72.037,331.333 71.923,331.333 72.052 M235.573 129.208 L 235.083 129.750 235.625 129.260 C 236.130 128.804,236.243 128.667,236.115 128.667 C 236.086 128.667,235.842 128.910,235.573 129.208 M190.548 153.750 C 190.549 154.208,190.581 154.376,190.620 154.123 C 190.658 153.869,190.657 153.494,190.617 153.289 C 190.578 153.084,190.546 153.292,190.548 153.750 M383.212 196.500 C 383.212 196.912,383.245 197.081,383.284 196.875 C 383.324 196.669,383.324 196.331,383.284 196.125 C 383.245 195.919,383.212 196.088,383.212 196.500 M259.629 200.456 C 260.021 200.491,260.621 200.490,260.963 200.454 C 261.304 200.419,260.983 200.390,260.250 200.390 C 259.517 200.391,259.237 200.420,259.629 200.456 M383.212 203.167 C 383.212 203.579,383.245 203.748,383.284 203.542 C 383.324 203.335,383.324 202.998,383.284 202.792 C 383.245 202.585,383.212 202.754,383.212 203.167 M143.542 231.615 C 143.702 231.657,143.965 231.657,144.125 231.615 C 144.285 231.573,144.154 231.539,143.833 231.539 C 143.512 231.539,143.381 231.573,143.542 231.615 M194.385 270.917 C 194.386 271.467,194.417 271.672,194.454 271.372 C 194.491 271.072,194.490 270.622,194.452 270.372 C 194.414 270.122,194.384 270.367,194.385 270.917 M142.880 321.789 C 143.318 321.824,143.993 321.823,144.380 321.788 C 144.767 321.754,144.408 321.725,143.583 321.726 C 142.758 321.726,142.442 321.755,142.880 321.789 M68.500 327.583 C 68.998 328.087,69.443 328.500,69.489 328.500 C 69.534 328.500,69.165 328.087,68.667 327.583 C 68.169 327.079,67.724 326.667,67.678 326.667 C 67.632 326.667,68.002 327.079,68.500 327.583 M331.740 327.208 L 331.250 327.750 331.792 327.260 C 332.297 326.804,332.410 326.667,332.281 326.667 C 332.252 326.667,332.009 326.910,331.740 327.208 M72.250 331.333 C 72.701 331.792,73.108 332.167,73.154 332.167 C 73.200 332.167,72.868 331.792,72.417 331.333 C 71.965 330.875,71.558 330.500,71.513 330.500 C 71.467 330.500,71.799 330.875,72.250 331.333 M327.324 331.625 L 326.750 332.250 327.375 331.676 C 327.719 331.360,328.000 331.078,328.000 331.051 C 328.000 330.923,327.859 331.043,327.324 331.625 M196.621 383.120 C 196.917 383.157,197.442 383.158,197.788 383.122 C 198.134 383.086,197.892 383.055,197.250 383.055 C 196.608 383.054,196.325 383.083,196.621 383.120 M202.794 383.118 C 203.001 383.158,203.301 383.156,203.460 383.115 C 203.620 383.073,203.450 383.040,203.083 383.042 C 202.717 383.044,202.586 383.078,202.794 383.118 " stroke="none" fill="#c4c4c4" fill-rule="evenodd"></path><path id="path4" d="" stroke="none" fill="#b4b4b4" fill-rule="evenodd"></path></g></svg>