<?xml version="1.0" encoding="UTF-8"?>
<!DOCTYPE svg PUBLIC "-//W3C//DTD SVG 1.1//EN" "http://www.w3.org/Graphics/SVG/1.1/DTD/svg11.dtd">
<svg xmlns="http://www.w3.org/2000/svg" version="1.1" width="1312px" height="1362px" style="shape-rendering:geometricPrecision; text-rendering:geometricPrecision; image-rendering:optimizeQuality; fill-rule:evenodd; clip-rule:evenodd" xmlns:xlink="http://www.w3.org/1999/xlink">
<g><path style="opacity:0.993" fill="#fefefe" d="M 578.5,-0.5 C 603.5,-0.5 628.5,-0.5 653.5,-0.5C 839.125,12.4124 996.625,85.079 1126,217.5C 1239.99,342.572 1300.99,490.239 1309,660.5C 1319.12,866.579 1250.95,1041.41 1104.5,1185C 994.18,1287.14 863.847,1345.98 713.5,1361.5C 673.167,1361.5 632.833,1361.5 592.5,1361.5C 421.193,1342.77 277.693,1270.1 162,1143.5C 69.6575,1037.75 15.4908,914.752 -0.5,774.5C -0.5,729.5 -0.5,684.5 -0.5,639.5C 7.79272,561.17 28.7927,486.337 62.5,415C 44.5621,402.215 26.8954,389.215 9.5,376C 61.9896,276.821 133.323,193.487 223.5,126C 329.475,49.8367 447.809,7.67004 578.5,-0.5 Z M 589.5,114.5 C 739.759,110.642 873.425,155.142 990.5,248C 1120.82,358.149 1190.99,498.982 1201,670.5C 1204.07,761.502 1187.73,848.835 1152,932.5C 1097.17,1051.99 1010.67,1140.49 892.5,1198C 797.674,1241.78 698.674,1255.78 595.5,1240C 488.083,1220.42 401.916,1167.25 337,1080.5C 271.782,986.872 252.782,884.538 280,773.5C 302.028,700.168 345.195,643.001 409.5,602C 410.167,601.333 410.833,601.333 411.5,602C 414.833,605.333 418.167,608.667 421.5,612C 371.673,671.545 345.007,740.378 341.5,818.5C 343.083,915.496 381.75,993.663 457.5,1053C 529.002,1102.24 608.002,1121.24 694.5,1110C 805.935,1092.15 891.435,1035.65 951,940.5C 1006.11,844.156 1024.45,741.156 1006,631.5C 982.239,515.414 924.073,420.914 831.5,348C 721.402,264.8 597.402,230.8 459.5,246C 368.89,258.42 285.556,289.753 209.5,340C 199.167,347.167 188.833,354.333 178.5,361.5C 175.015,358.516 171.682,355.349 168.5,352C 237.946,246.617 333.279,175.283 454.5,138C 498.741,124.961 543.741,117.127 589.5,114.5 Z M 511.5,355.5 C 634.872,356.638 738.372,401.971 822,491.5C 854.693,528.529 878.359,570.862 893,618.5C 894.323,622.108 894.989,625.775 895,629.5C 890.42,632.028 885.587,633.528 880.5,634C 823.056,557.564 749.056,503.897 658.5,473C 550.559,439.883 447.226,450.55 348.5,505C 262.339,558.201 204.172,633.368 174,730.5C 157.149,785.673 150.983,842.007 155.5,899.5C 150.525,900.737 145.691,902.404 141,904.5C 134.095,890.457 128.762,875.79 125,860.5C 94.1433,729.955 119.81,611.955 202,506.5C 269.738,426.024 355.904,377.191 460.5,360C 477.595,357.794 494.595,356.294 511.5,355.5 Z M 624.5,635.5 C 684.731,636.516 729.898,662.849 760,714.5C 786.92,775.974 778.42,831.974 734.5,882.5C 750.5,893.833 766.5,905.167 782.5,916.5C 743.013,969.572 690.013,994.739 623.5,992C 552.621,984.099 502.121,947.932 472,883.5C 446.425,815.291 456.425,752.957 502,696.5C 534.92,660.29 575.753,639.957 624.5,635.5 Z"/></g>
</svg>
