<?xml version="1.0" encoding="UTF-8"?>
<!DOCTYPE svg PUBLIC "-//W3C//DTD SVG 1.1//EN" "http://www.w3.org/Graphics/SVG/1.1/DTD/svg11.dtd">
<svg xmlns="http://www.w3.org/2000/svg" version="1.1" width="2400px" height="2398px" style="shape-rendering:geometricPrecision; text-rendering:geometricPrecision; image-rendering:optimizeQuality; fill-rule:evenodd; clip-rule:evenodd" xmlns:xlink="http://www.w3.org/1999/xlink">
<g><path style="opacity:0.993" fill="#fefffe" d="M 1141.5,97.5 C 1355.68,87.5971 1554.01,137.43 1736.5,247C 1742.13,251.969 1741.3,255.136 1734,256.5C 1714.97,253.219 1695.8,251.219 1676.5,250.5C 1655.74,251.342 1635.08,253.176 1614.5,256C 1549.19,268.993 1486.19,288.993 1425.5,316C 1347.56,351.213 1272.72,391.713 1201,437.5C 1119.05,385.109 1033.22,339.942 943.5,302C 912.945,290.271 881.945,279.605 850.5,270C 829.75,264.229 808.75,259.563 787.5,256C 767.092,253.14 746.592,251.306 726,250.5C 706.541,251.266 687.208,253.266 668,256.5C 666.5,256.333 665,256.167 663.5,256C 662.919,255.107 662.585,254.107 662.5,253C 663.114,251.463 663.114,250.13 662.5,249C 809.182,159.17 968.848,108.67 1141.5,97.5 Z"/></g>
<g><path style="opacity:0.996" fill="#fefffe" d="M 480.5,406.5 C 493.997,406.52 507.331,408.02 520.5,411C 553.391,421.301 584.391,435.635 613.5,454C 651.707,479.084 688.374,506.084 723.5,535C 776.953,581.269 828.453,629.435 878,679.5C 883.301,685.802 888.968,691.802 895,697.5C 895.781,698.729 896.281,700.062 896.5,701.5C 751.208,889.439 623.874,1088.77 514.5,1299.5C 475.011,1376.49 439.845,1455.49 409,1536.5C 393.719,1580.31 380.219,1624.14 368.5,1668C 369.022,1668.56 369.355,1669.23 369.5,1670C 367.649,1676.74 365.649,1683.41 363.5,1690C 364.059,1690.72 364.392,1691.56 364.5,1692.5C 360.452,1712.95 356.786,1733.45 353.5,1754C 352.214,1781.34 352.214,1808.67 353.5,1836C 356.678,1850.43 360.011,1864.59 363.5,1878.5C 362.471,1883.18 359.805,1884.35 355.5,1882C 255.74,1746.21 189.573,1594.71 157,1427.5C 147.666,1375.43 141.333,1322.77 138,1269.5C 137.333,1228.17 137.333,1186.83 138,1145.5C 151.963,911.871 227.63,703.204 365,519.5C 393.117,483.248 423.284,448.414 455.5,415C 463.372,410.654 471.705,407.821 480.5,406.5 Z"/></g>
<g><path style="opacity:0.996" fill="#fefffe" d="M 1907.5,406.5 C 1920.36,405.814 1932.69,407.981 1944.5,413C 2075.4,547.17 2167.57,705.003 2221,886.5C 2256.61,1012.57 2270.94,1141.57 2264,1273.5C 2250.03,1498.22 2178.36,1700.22 2049,1879.5C 2044.66,1885.16 2041.16,1884.83 2038.5,1878.5C 2047.09,1851.86 2050.76,1824.53 2049.5,1796.5C 2049.96,1762.7 2046.29,1729.37 2038.5,1696.5C 2038.61,1695.56 2038.94,1694.72 2039.5,1694C 2017.48,1599.23 1985.81,1507.89 1944.5,1420C 1944.83,1419.67 1945.17,1419.33 1945.5,1419C 1864.66,1245.19 1770.99,1079.86 1664.5,923C 1617.34,849.949 1565.84,778.783 1510,709.5C 1507.86,707.194 1506.36,704.527 1505.5,701.5C 1506.03,699.135 1507.2,697.135 1509,695.5C 1563.33,639.497 1619.83,585.997 1678.5,535C 1711.78,507.372 1746.44,481.705 1782.5,458C 1807.14,442.573 1832.81,429.24 1859.5,418C 1875.2,412.337 1891.2,408.504 1907.5,406.5 Z"/></g>
<g><path style="opacity:0.998" fill="#fefffe" d="M 1199.5,970.5 C 1203.47,970.817 1206.47,972.651 1208.5,976C 1220.83,985.667 1233.17,995.333 1245.5,1005C 1445.08,1179.09 1619.25,1371.25 1768,1581.5C 1799.8,1628.92 1829.97,1677.42 1858.5,1727C 1858.17,1727.33 1857.83,1727.67 1857.5,1728C 1887.75,1779.8 1910.58,1835.3 1926,1894.5C 1932.89,1925.92 1934.23,1957.59 1930,1989.5C 1925.87,2009.43 1917.2,2027.09 1904,2042.5C 1739.4,2192.72 1545.56,2282.55 1322.5,2312C 1015.86,2341.94 746.858,2257.27 515.5,2058C 508.03,2051.53 500.864,2044.7 494,2037.5C 482.257,2020.83 474.423,2002.33 470.5,1982C 469.205,1963.01 469.205,1944.01 470.5,1925C 480.288,1868.63 498.621,1815.3 525.5,1765C 540.757,1731.84 558.757,1699.51 579.5,1668C 586.676,1653.85 595.009,1640.52 604.5,1628C 647.895,1559.72 696.895,1492.72 751.5,1427C 826.855,1333.05 907.855,1242.55 994.5,1155.5C 1039.5,1111 1085.5,1067.83 1132.5,1026C 1154.86,1007.49 1177.2,988.992 1199.5,970.5 Z"/></g>
</svg>
